<?xml version="1.0" encoding="UTF-8" standalone="no"?><svg xmlns="http://www.w3.org/2000/svg" xmlns:xlink="http://www.w3.org/1999/xlink" clip-rule="evenodd" stroke-miterlimit="4.00" viewBox="0 0 312 21"><desc>SVG generated by Keynote</desc><defs></defs><g transform="matrix(1.00, 0.00, -0.00, -1.00, 0.0, 21.0)"><text xml:space="preserve" font-family="VarelaRound" font-size="24.0" fill="#FEFFFF" transform="matrix(1.00, 0.00, -0.00, -1.00, 1.0, 3.0)">&gt;</text><text xml:space="preserve" font-family="VarelaRound" font-size="24.0" fill="#FEFFFF" transform="matrix(1.00, 0.00, -0.00, -1.00, 14.9, 3.0)"> </text><text xml:space="preserve" font-family="VarelaRound" font-size="24.0" fill="#FEFFFF" transform="matrix(1.00, 0.00, -0.00, -1.00, 21.2, 3.0)">I</text><text xml:space="preserve" font-family="VarelaRound" font-size="24.0" fill="#FEFFFF" transform="matrix(1.00, 0.00, -0.00, -1.00, 27.8, 3.0)">n</text><text xml:space="preserve" font-family="VarelaRound" font-size="24.0" fill="#FEFFFF" transform="matrix(1.00, 0.00, -0.00, -1.00, 42.4, 3.0)">s</text><text xml:space="preserve" font-family="VarelaRound" font-size="24.0" fill="#FEFFFF" transform="matrix(1.00, 0.00, -0.00, -1.00, 53.8, 3.0)">t</text><text xml:space="preserve" font-family="VarelaRound" font-size="24.0" fill="#FEFFFF" transform="matrix(1.00, 0.00, -0.00, -1.00, 63.0, 3.0)">a</text><text xml:space="preserve" font-family="VarelaRound" font-size="24.0" fill="#FEFFFF" transform="matrix(1.00, 0.00, -0.00, -1.00, 76.3, 3.0)">n</text><text xml:space="preserve" font-family="VarelaRound" font-size="24.0" fill="#FEFFFF" transform="matrix(1.00, 0.00, -0.00, -1.00, 90.9, 3.0)">t</text><text xml:space="preserve" font-family="VarelaRound" font-size="24.0" fill="#FEFFFF" transform="matrix(1.00, 0.00, -0.00, -1.00, 100.1, 3.0)"> </text><text xml:space="preserve" font-family="VarelaRound" font-size="24.0" fill="#FEFFFF" transform="matrix(1.00, 0.00, -0.00, -1.00, 106.3, 3.0)">a</text><text xml:space="preserve" font-family="VarelaRound" font-size="24.0" fill="#FEFFFF" transform="matrix(1.00, 0.00, -0.00, -1.00, 119.6, 3.0)">c</text><text xml:space="preserve" font-family="VarelaRound" font-size="24.0" fill="#FEFFFF" transform="matrix(1.00, 0.00, -0.00, -1.00, 132.4, 3.0)">c</text><text xml:space="preserve" font-family="VarelaRound" font-size="24.0" fill="#FEFFFF" transform="matrix(1.00, 0.00, -0.00, -1.00, 145.2, 3.0)">e</text><text xml:space="preserve" font-family="VarelaRound" font-size="24.0" fill="#FEFFFF" transform="matrix(1.00, 0.00, -0.00, -1.00, 158.8, 3.0)">s</text><text xml:space="preserve" font-family="VarelaRound" font-size="24.0" fill="#FEFFFF" transform="matrix(1.00, 0.00, -0.00, -1.00, 170.4, 3.0)">s</text><text xml:space="preserve" font-family="VarelaRound" font-size="24.0" fill="#FEFFFF" transform="matrix(1.00, 0.00, -0.00, -1.00, 181.9, 3.0)"> </text><text xml:space="preserve" font-family="VarelaRound" font-size="24.0" fill="#FEFFFF" transform="matrix(1.00, 0.00, -0.00, -1.00, 188.1, 3.0)">t</text><text xml:space="preserve" font-family="VarelaRound" font-size="24.0" fill="#FEFFFF" transform="matrix(1.00, 0.00, -0.00, -1.00, 197.3, 3.0)">o</text><text xml:space="preserve" font-family="VarelaRound" font-size="24.0" fill="#FEFFFF" transform="matrix(1.00, 0.00, -0.00, -1.00, 211.9, 3.0)"> </text><text xml:space="preserve" font-family="VarelaRound" font-size="24.0" fill="#FEFFFF" transform="matrix(1.00, 0.00, -0.00, -1.00, 218.2, 3.0)">a</text><text xml:space="preserve" font-family="VarelaRound" font-size="24.0" fill="#FEFFFF" transform="matrix(1.00, 0.00, -0.00, -1.00, 231.5, 3.0)">n</text><text xml:space="preserve" font-family="VarelaRound" font-size="24.0" fill="#FEFFFF" transform="matrix(1.00, 0.00, -0.00, -1.00, 246.1, 3.0)">s</text><text xml:space="preserve" font-family="VarelaRound" font-size="24.0" fill="#FEFFFF" transform="matrix(1.00, 0.00, -0.00, -1.00, 257.6, 3.0)">w</text><text xml:space="preserve" font-family="VarelaRound" font-size="24.0" fill="#FEFFFF" transform="matrix(1.00, 0.00, -0.00, -1.00, 276.5, 3.0)">e</text><text xml:space="preserve" font-family="VarelaRound" font-size="24.0" fill="#FEFFFF" transform="matrix(1.00, 0.00, -0.00, -1.00, 290.2, 3.0)">r</text><text xml:space="preserve" font-family="VarelaRound" font-size="24.0" fill="#FEFFFF" transform="matrix(1.00, 0.00, -0.00, -1.00, 299.4, 3.0)">s</text></g></svg>