<?xml version="1.0" encoding="UTF-8" standalone="no"?><svg xmlns="http://www.w3.org/2000/svg" xmlns:xlink="http://www.w3.org/1999/xlink" clip-rule="evenodd" stroke-miterlimit="4.00" viewBox="0 0 455 427"><desc>SVG generated by Keynote</desc><defs></defs><g transform="matrix(1.00, 0.00, -0.00, -1.00, 0.0, 427.0)"><g><clipPath id="clip-462"><path d="M 8.4 385.3 L 446.7 385.3 L 446.7 428.8 L 8.4 428.8 Z M 8.4 385.3 "></path></clipPath><g clip-path="url(#clip-462)"><text xml:space="preserve" font-family="VarelaRound" font-size="24.0" fill="#52575F" transform="matrix(1.00, 0.00, -0.00, -1.00, 129.0, 399.0)">A</text><text xml:space="preserve" font-family="VarelaRound" font-size="24.0" fill="#52575F" transform="matrix(1.00, 0.00, -0.00, -1.00, 145.6, 399.0)">n</text><text xml:space="preserve" font-family="VarelaRound" font-size="24.0" fill="#52575F" transform="matrix(1.00, 0.00, -0.00, -1.00, 160.2, 399.0)">s</text><text xml:space="preserve" font-family="VarelaRound" font-size="24.0" fill="#52575F" transform="matrix(1.00, 0.00, -0.00, -1.00, 171.7, 399.0)">w</text><text xml:space="preserve" font-family="VarelaRound" font-size="24.0" fill="#52575F" transform="matrix(1.00, 0.00, -0.00, -1.00, 190.6, 399.0)">e</text><text xml:space="preserve" font-family="VarelaRound" font-size="24.0" fill="#52575F" transform="matrix(1.00, 0.00, -0.00, -1.00, 204.2, 399.0)">r</text><text xml:space="preserve" font-family="VarelaRound" font-size="24.0" fill="#52575F" transform="matrix(1.00, 0.00, -0.00, -1.00, 213.5, 399.0)">s</text><text xml:space="preserve" font-family="VarelaRound" font-size="24.0" fill="#52575F" transform="matrix(1.00, 0.00, -0.00, -1.00, 225.0, 399.0)"> </text><text xml:space="preserve" font-family="VarelaRound" font-size="24.0" fill="#52575F" transform="matrix(1.00, 0.00, -0.00, -1.00, 231.3, 399.0)">b</text><text xml:space="preserve" font-family="VarelaRound" font-size="24.0" fill="#52575F" transform="matrix(1.00, 0.00, -0.00, -1.00, 246.3, 399.0)">y</text><text xml:space="preserve" font-family="VarelaRound" font-size="24.0" fill="#52575F" transform="matrix(1.00, 0.00, -0.00, -1.00, 259.1, 399.0)"> </text><text xml:space="preserve" font-family="VarelaRound" font-size="24.0" fill="#52575F" transform="matrix(1.00, 0.00, -0.00, -1.00, 265.3, 399.0)">T</text><text xml:space="preserve" font-family="VarelaRound" font-size="24.0" fill="#52575F" transform="matrix(1.00, 0.00, -0.00, -1.00, 278.0, 399.0)">o</text><text xml:space="preserve" font-family="VarelaRound" font-size="24.0" fill="#52575F" transform="matrix(1.00, 0.00, -0.00, -1.00, 292.6, 399.0)">p</text><text xml:space="preserve" font-family="VarelaRound" font-size="24.0" fill="#52575F" transform="matrix(1.00, 0.00, -0.00, -1.00, 307.7, 399.0)">i</text><text xml:space="preserve" font-family="VarelaRound" font-size="24.0" fill="#52575F" transform="matrix(1.00, 0.00, -0.00, -1.00, 313.9, 399.0)">c</text></g></g><g><clipPath id="clip-463"><path d="M 234.8 0.3 L 454.8 0.3 L 454.8 104.5 L 234.8 104.5 Z M 234.8 0.3 "></path></clipPath><g clip-path="url(#clip-463)"><image xlink:href="../../4AD4CFB0-1E24-4D02-B0BF-EE26F9E1AFC3/assets/4F81A417B1232FA5857E3EC926A320B8.png" width="220.00" height="104.00" transform="matrix(1.00, 0.00, -0.00, -1.01, 235.0, 105.0)"></image></g></g><g><clipPath id="clip-464"><path d="M 234.8 124.5 L 454.8 124.5 L 454.8 228.8 L 234.8 228.8 Z M 234.8 124.5 "></path></clipPath><g clip-path="url(#clip-464)"><image xlink:href="../../4AD4CFB0-1E24-4D02-B0BF-EE26F9E1AFC3/assets/752FA0AE39AA1F7F20F4DB841DBFACD6.png" width="220.00" height="104.00" transform="matrix(1.00, 0.00, -0.00, -1.00, 235.0, 229.0)"></image></g></g><g><clipPath id="clip-465"><path d="M 0.2 0.3 L 220.2 0.3 L 220.2 104.5 L 0.2 104.5 Z M 0.2 0.3 "></path></clipPath><g clip-path="url(#clip-465)"><image xlink:href="../../4AD4CFB0-1E24-4D02-B0BF-EE26F9E1AFC3/assets/5A18C534589E98E9A6EAD7398689DBF1.png" width="220.00" height="104.00" transform="matrix(1.00, 0.00, -0.00, -1.01, 0.0, 105.0)"></image></g></g><g><clipPath id="clip-466"><path d="M 234.8 248.8 L 454.8 248.8 L 454.8 353.0 L 234.8 353.0 Z M 234.8 248.8 "></path></clipPath><g clip-path="url(#clip-466)"><image xlink:href="../../4AD4CFB0-1E24-4D02-B0BF-EE26F9E1AFC3/assets/9AFAB2E405EAF9A427790442D50163FA.png" width="220.00" height="104.00" transform="matrix(1.00, 0.00, -0.00, -1.00, 235.0, 353.0)"></image></g></g><g><clipPath id="clip-467"><path d="M 0.2 124.5 L 220.2 124.5 L 220.2 228.8 L 0.2 228.8 Z M 0.2 124.5 "></path></clipPath><g clip-path="url(#clip-467)"><image xlink:href="../../4AD4CFB0-1E24-4D02-B0BF-EE26F9E1AFC3/assets/6BBE69139956F47856FF8A89A859DF6B.png" width="220.00" height="104.00" transform="matrix(1.00, 0.00, -0.00, -1.00, 0.0, 229.0)"></image></g></g><g><clipPath id="clip-468"><path d="M 0.2 248.8 L 220.2 248.8 L 220.2 353.0 L 0.2 353.0 Z M 0.2 248.8 "></path></clipPath><g clip-path="url(#clip-468)"><image xlink:href="../../4AD4CFB0-1E24-4D02-B0BF-EE26F9E1AFC3/assets/833A2D1D16B9DA1BA4EB2335BD12060D.png" width="220.00" height="104.00" transform="matrix(1.00, 0.00, -0.00, -1.00, 0.0, 353.0)"></image></g></g></g></svg>