<?xml version="1.0" encoding="UTF-8" standalone="no"?><svg xmlns="http://www.w3.org/2000/svg" xmlns:xlink="http://www.w3.org/1999/xlink" clip-rule="evenodd" stroke-miterlimit="4.00" viewBox="0 0 732 40"><desc>SVG generated by Keynote</desc><defs></defs><g transform="matrix(1.00, 0.00, -0.00, -1.00, 0.0, 40.0)"><text xml:space="preserve" font-family="VarelaRound" font-size="36.0" fill="#FEFFFF" transform="matrix(1.00, 0.00, -0.00, -1.00, -2.0, 11.0)">B</text><text xml:space="preserve" font-family="VarelaRound" font-size="36.0" fill="#FEFFFF" transform="matrix(1.00, 0.00, -0.00, -1.00, 22.8, 11.0)">o</text><text xml:space="preserve" font-family="VarelaRound" font-size="36.0" fill="#FEFFFF" transform="matrix(1.00, 0.00, -0.00, -1.00, 44.7, 11.0)">s</text><text xml:space="preserve" font-family="VarelaRound" font-size="36.0" fill="#FEFFFF" transform="matrix(1.00, 0.00, -0.00, -1.00, 61.8, 11.0)">t</text><text xml:space="preserve" font-family="VarelaRound" font-size="36.0" fill="#FEFFFF" transform="matrix(1.00, 0.00, -0.00, -1.00, 75.6, 11.0)">o</text><text xml:space="preserve" font-family="VarelaRound" font-size="36.0" fill="#FEFFFF" transform="matrix(1.00, 0.00, -0.00, -1.00, 97.5, 11.0)">n</text><text xml:space="preserve" font-family="VarelaRound" font-size="36.0" fill="#FEFFFF" transform="matrix(1.00, 0.00, -0.00, -1.00, 119.4, 11.0)"> </text><text xml:space="preserve" font-family="VarelaRound" font-size="36.0" fill="#FEFFFF" transform="matrix(1.00, 0.00, -0.00, -1.00, 128.8, 11.0)">M</text><text xml:space="preserve" font-family="VarelaRound" font-size="36.0" fill="#FEFFFF" transform="matrix(1.00, 0.00, -0.00, -1.00, 163.1, 11.0)">e</text><text xml:space="preserve" font-family="VarelaRound" font-size="36.0" fill="#FEFFFF" transform="matrix(1.00, 0.00, -0.00, -1.00, 183.6, 11.0)">d</text><text xml:space="preserve" font-family="VarelaRound" font-size="36.0" fill="#FEFFFF" transform="matrix(1.00, 0.00, -0.00, -1.00, 206.3, 11.0)">i</text><text xml:space="preserve" font-family="VarelaRound" font-size="36.0" fill="#FEFFFF" transform="matrix(1.00, 0.00, -0.00, -1.00, 215.5, 11.0)">c</text><text xml:space="preserve" font-family="VarelaRound" font-size="36.0" fill="#FEFFFF" transform="matrix(1.00, 0.00, -0.00, -1.00, 234.8, 11.0)">a</text><text xml:space="preserve" font-family="VarelaRound" font-size="36.0" fill="#FEFFFF" transform="matrix(1.00, 0.00, -0.00, -1.00, 254.8, 11.0)">l</text><text xml:space="preserve" font-family="VarelaRound" font-size="36.0" fill="#FEFFFF" transform="matrix(1.00, 0.00, -0.00, -1.00, 264.4, 11.0)"> </text><text xml:space="preserve" font-family="VarelaRound" font-size="36.0" fill="#FEFFFF" transform="matrix(1.00, 0.00, -0.00, -1.00, 273.7, 11.0)">C</text><text xml:space="preserve" font-family="VarelaRound" font-size="36.0" fill="#FEFFFF" transform="matrix(1.00, 0.00, -0.00, -1.00, 298.3, 11.0)">e</text><text xml:space="preserve" font-family="VarelaRound" font-size="36.0" fill="#FEFFFF" transform="matrix(1.00, 0.00, -0.00, -1.00, 318.8, 11.0)">n</text><text xml:space="preserve" font-family="VarelaRound" font-size="36.0" fill="#FEFFFF" transform="matrix(1.00, 0.00, -0.00, -1.00, 340.6, 11.0)">t</text><text xml:space="preserve" font-family="VarelaRound" font-size="36.0" fill="#FEFFFF" transform="matrix(1.00, 0.00, -0.00, -1.00, 354.4, 11.0)">e</text><text xml:space="preserve" font-family="VarelaRound" font-size="36.0" fill="#FEFFFF" transform="matrix(1.00, 0.00, -0.00, -1.00, 374.9, 11.0)">r</text><text xml:space="preserve" font-family="VarelaRound" font-size="36.0" fill="#FEFFFF" transform="matrix(1.00, 0.00, -0.00, -1.00, 388.9, 11.0)">’</text><text xml:space="preserve" font-family="VarelaRound" font-size="36.0" fill="#FEFFFF" transform="matrix(1.00, 0.00, -0.00, -1.00, 396.8, 11.0)">s</text><text xml:space="preserve" font-family="VarelaRound" font-size="36.0" fill="#FEFFFF" transform="matrix(1.00, 0.00, -0.00, -1.00, 414.1, 11.0)"> </text><text xml:space="preserve" font-family="VarelaRound" font-size="36.0" fill="#FEFFFF" transform="matrix(1.00, 0.00, -0.00, -1.00, 423.5, 11.0)">a</text><text xml:space="preserve" font-family="VarelaRound" font-size="36.0" fill="#FEFFFF" transform="matrix(1.00, 0.00, -0.00, -1.00, 443.5, 11.0)">n</text><text xml:space="preserve" font-family="VarelaRound" font-size="36.0" fill="#FEFFFF" transform="matrix(1.00, 0.00, -0.00, -1.00, 465.4, 11.0)">a</text><text xml:space="preserve" font-family="VarelaRound" font-size="36.0" fill="#FEFFFF" transform="matrix(1.00, 0.00, -0.00, -1.00, 485.4, 11.0)">l</text><text xml:space="preserve" font-family="VarelaRound" font-size="36.0" fill="#FEFFFF" transform="matrix(1.00, 0.00, -0.00, -1.00, 494.9, 11.0)">y</text><text xml:space="preserve" font-family="VarelaRound" font-size="36.0" fill="#FEFFFF" transform="matrix(1.00, 0.00, -0.00, -1.00, 514.9, 11.0)">t</text><text xml:space="preserve" font-family="VarelaRound" font-size="36.0" fill="#FEFFFF" transform="matrix(1.00, 0.00, -0.00, -1.00, 528.7, 11.0)">i</text><text xml:space="preserve" font-family="VarelaRound" font-size="36.0" fill="#FEFFFF" transform="matrix(1.00, 0.00, -0.00, -1.00, 538.0, 11.0)">c</text><text xml:space="preserve" font-family="VarelaRound" font-size="36.0" fill="#FEFFFF" transform="matrix(1.00, 0.00, -0.00, -1.00, 557.3, 11.0)">s</text><text xml:space="preserve" font-family="VarelaRound" font-size="36.0" fill="#FEFFFF" transform="matrix(1.00, 0.00, -0.00, -1.00, 574.5, 11.0)"> </text><text xml:space="preserve" font-family="VarelaRound" font-size="36.0" fill="#FEFFFF" transform="matrix(1.00, 0.00, -0.00, -1.00, 583.9, 11.0)">p</text><text xml:space="preserve" font-family="VarelaRound" font-size="36.0" fill="#FEFFFF" transform="matrix(1.00, 0.00, -0.00, -1.00, 606.6, 11.0)">r</text><text xml:space="preserve" font-family="VarelaRound" font-size="36.0" fill="#FEFFFF" transform="matrix(1.00, 0.00, -0.00, -1.00, 620.5, 11.0)">o</text><text xml:space="preserve" font-family="VarelaRound" font-size="36.0" fill="#FEFFFF" transform="matrix(1.00, 0.00, -0.00, -1.00, 642.4, 11.0)">g</text><text xml:space="preserve" font-family="VarelaRound" font-size="36.0" fill="#FEFFFF" transform="matrix(1.00, 0.00, -0.00, -1.00, 665.2, 11.0)">r</text><text xml:space="preserve" font-family="VarelaRound" font-size="36.0" fill="#FEFFFF" transform="matrix(1.00, 0.00, -0.00, -1.00, 679.1, 11.0)">a</text><text xml:space="preserve" font-family="VarelaRound" font-size="36.0" fill="#FEFFFF" transform="matrix(1.00, 0.00, -0.00, -1.00, 699.1, 11.0)">m</text></g></svg>