<?xml version="1.0" encoding="UTF-8" standalone="no"?><svg xmlns="http://www.w3.org/2000/svg" xmlns:xlink="http://www.w3.org/1999/xlink" clip-rule="evenodd" stroke-miterlimit="4.00" viewBox="0 0 1024 768"><desc>SVG generated by Keynote</desc><defs></defs><g transform="matrix(1.00, 0.00, -0.00, -1.00, 0.0, 768.0)"><path d="M 0.0 768.0 L 1024.0 768.0 L 1024.0 0.0 L 0.0 0.0 Z M 0.0 768.0 " fill="#355B85"></path><g><clipPath id="clip-402"><path d="M 267.8 376.1 L 500.3 376.1 L 500.3 411.9 L 267.8 411.9 Z M 267.8 376.1 "></path></clipPath><g clip-path="url(#clip-402)"><image xlink:href="61C642E5D8F1136BA2248646667ED960.png" width="233.00" height="35.00" transform="matrix(1.00, 0.00, -0.00, -1.03, 268.0, 412.0)"></image></g></g><g><clipPath id="clip-403"><path d="M 529.6 358.0 L 737.4 358.0 L 737.4 430.0 L 529.6 430.0 Z M 529.6 358.0 "></path></clipPath><g clip-path="url(#clip-403)"><text xml:space="preserve" font-family="VarelaRound" font-size="40.0" fill="#FEFFFF" transform="matrix(1.00, 0.00, -0.00, -1.00, 542.0, 381.0)">B</text><text xml:space="preserve" font-family="VarelaRound" font-size="40.0" fill="#FEFFFF" transform="matrix(1.00, 0.00, -0.00, -1.00, 569.7, 381.0)">l</text><text xml:space="preserve" font-family="VarelaRound" font-size="40.0" fill="#FEFFFF" transform="matrix(1.00, 0.00, -0.00, -1.00, 580.3, 381.0)">u</text><text xml:space="preserve" font-family="VarelaRound" font-size="40.0" fill="#FEFFFF" transform="matrix(1.00, 0.00, -0.00, -1.00, 604.7, 381.0)">e</text><text xml:space="preserve" font-family="VarelaRound" font-size="40.0" fill="#FEFFFF" transform="matrix(1.00, 0.00, -0.00, -1.00, 627.5, 381.0)">p</text><text xml:space="preserve" font-family="VarelaRound" font-size="40.0" fill="#FEFFFF" transform="matrix(1.00, 0.00, -0.00, -1.00, 652.8, 381.0)">r</text><text xml:space="preserve" font-family="VarelaRound" font-size="40.0" fill="#FEFFFF" transform="matrix(1.00, 0.00, -0.00, -1.00, 668.2, 381.0)">i</text><text xml:space="preserve" font-family="VarelaRound" font-size="40.0" fill="#FEFFFF" transform="matrix(1.00, 0.00, -0.00, -1.00, 678.5, 381.0)">n</text><text xml:space="preserve" font-family="VarelaRound" font-size="40.0" fill="#FEFFFF" transform="matrix(1.00, 0.00, -0.00, -1.00, 702.7, 381.0)">t</text></g></g><g><clipPath id="clip-404"><path d="M 520.3 352.0 L 520.3 436.0 L 523.3 436.0 L 523.3 352.0 Z M 520.3 352.0 "></path></clipPath><g clip-path="url(#clip-404)"><g opacity="0.30"><g><clipPath id="clip-405"><path d="M 521.0 353.0 L 523.0 353.0 L 523.0 435.0 L 521.0 435.0 Z M 521.0 353.0 "></path></clipPath><g clip-path="url(#clip-405)"><path d="M 0.0 0.0 L 81.9 0.0 " fill="none" stroke="#FEFFFF" stroke-width="1.00" transform="matrix(0.00, 1.00, 1.00, 0.00, 521.8, 353.0)"></path></g></g></g></g></g></g></svg>