<?xml version="1.0" encoding="UTF-8" standalone="no"?><svg xmlns="http://www.w3.org/2000/svg" xmlns:xlink="http://www.w3.org/1999/xlink" clip-rule="evenodd" stroke-miterlimit="4.00" viewBox="0 0 235 66"><desc>SVG generated by Keynote</desc><defs></defs><g transform="matrix(1.00, 0.00, -0.00, -1.00, 0.0, 66.0)"><text xml:space="preserve" font-family="VarelaRound" font-size="32.0" fill="#FEFFFF" transform="matrix(1.00, 0.00, -0.00, -1.00, 0.0, 41.0)">S</text><text xml:space="preserve" font-family="VarelaRound" font-size="32.0" fill="#FEFFFF" transform="matrix(1.00, 0.00, -0.00, -1.00, 19.0, 41.0)">t</text><text xml:space="preserve" font-family="VarelaRound" font-size="32.0" fill="#FEFFFF" transform="matrix(1.00, 0.00, -0.00, -1.00, 31.3, 41.0)">a</text><text xml:space="preserve" font-family="VarelaRound" font-size="32.0" fill="#FEFFFF" transform="matrix(1.00, 0.00, -0.00, -1.00, 48.9, 41.0)">ﬀ</text><text xml:space="preserve" font-family="VarelaRound" font-size="32.0" fill="#FEFFFF" transform="matrix(1.00, 0.00, -0.00, -1.00, 73.6, 41.0)"> </text><text xml:space="preserve" font-family="VarelaRound" font-size="32.0" fill="#FEFFFF" transform="matrix(1.00, 0.00, -0.00, -1.00, 82.0, 41.0)">s</text><text xml:space="preserve" font-family="VarelaRound" font-size="32.0" fill="#FEFFFF" transform="matrix(1.00, 0.00, -0.00, -1.00, 97.3, 41.0)">h</text><text xml:space="preserve" font-family="VarelaRound" font-size="32.0" fill="#FEFFFF" transform="matrix(1.00, 0.00, -0.00, -1.00, 116.8, 41.0)">o</text><text xml:space="preserve" font-family="VarelaRound" font-size="32.0" fill="#FEFFFF" transform="matrix(1.00, 0.00, -0.00, -1.00, 136.3, 41.0)">r</text><text xml:space="preserve" font-family="VarelaRound" font-size="32.0" fill="#FEFFFF" transform="matrix(1.00, 0.00, -0.00, -1.00, 148.6, 41.0)">t</text><text xml:space="preserve" font-family="VarelaRound" font-size="32.0" fill="#FEFFFF" transform="matrix(1.00, 0.00, -0.00, -1.00, 160.9, 41.0)">a</text><text xml:space="preserve" font-family="VarelaRound" font-size="32.0" fill="#FEFFFF" transform="matrix(1.00, 0.00, -0.00, -1.00, 178.7, 41.0)">g</text><text xml:space="preserve" font-family="VarelaRound" font-size="32.0" fill="#FEFFFF" transform="matrix(1.00, 0.00, -0.00, -1.00, 198.9, 41.0)">e</text><text xml:space="preserve" font-family="VarelaRound" font-size="32.0" fill="#FEFFFF" transform="matrix(1.00, 0.00, -0.00, -1.00, 217.1, 41.0)">s</text><text xml:space="preserve" font-family="VarelaRound" font-size="32.0" fill="#FEFFFF" transform="matrix(1.00, 0.00, -0.00, -1.00, 232.5, 41.0)"> </text><text xml:space="preserve" font-family="VarelaRound" font-size="32.0" fill="#FEFFFF" transform="matrix(1.00, 0.00, -0.00, -1.00, 2.0, 3.0)">N</text><text xml:space="preserve" font-family="VarelaRound" font-size="32.0" fill="#FEFFFF" transform="matrix(1.00, 0.00, -0.00, -1.00, 27.3, 3.0)">u</text><text xml:space="preserve" font-family="VarelaRound" font-size="32.0" fill="#FEFFFF" transform="matrix(1.00, 0.00, -0.00, -1.00, 46.8, 3.0)">r</text><text xml:space="preserve" font-family="VarelaRound" font-size="32.0" fill="#FEFFFF" transform="matrix(1.00, 0.00, -0.00, -1.00, 59.2, 3.0)">s</text><text xml:space="preserve" font-family="VarelaRound" font-size="32.0" fill="#FEFFFF" transform="matrix(1.00, 0.00, -0.00, -1.00, 74.5, 3.0)">e</text><text xml:space="preserve" font-family="VarelaRound" font-size="32.0" fill="#FEFFFF" transform="matrix(1.00, 0.00, -0.00, -1.00, 92.8, 3.0)"> </text><text xml:space="preserve" font-family="VarelaRound" font-size="32.0" fill="#FEFFFF" transform="matrix(1.00, 0.00, -0.00, -1.00, 101.1, 3.0)">t</text><text xml:space="preserve" font-family="VarelaRound" font-size="32.0" fill="#FEFFFF" transform="matrix(1.00, 0.00, -0.00, -1.00, 113.4, 3.0)">u</text><text xml:space="preserve" font-family="VarelaRound" font-size="32.0" fill="#FEFFFF" transform="matrix(1.00, 0.00, -0.00, -1.00, 132.9, 3.0)">r</text><text xml:space="preserve" font-family="VarelaRound" font-size="32.0" fill="#FEFFFF" transform="matrix(1.00, 0.00, -0.00, -1.00, 145.3, 3.0)">n</text><text xml:space="preserve" font-family="VarelaRound" font-size="32.0" fill="#FEFFFF" transform="matrix(1.00, 0.00, -0.00, -1.00, 164.8, 3.0)">o</text><text xml:space="preserve" font-family="VarelaRound" font-size="32.0" fill="#FEFFFF" transform="matrix(1.00, 0.00, -0.00, -1.00, 184.0, 3.0)">v</text><text xml:space="preserve" font-family="VarelaRound" font-size="32.0" fill="#FEFFFF" transform="matrix(1.00, 0.00, -0.00, -1.00, 200.8, 3.0)">e</text><text xml:space="preserve" font-family="VarelaRound" font-size="32.0" fill="#FEFFFF" transform="matrix(1.00, 0.00, -0.00, -1.00, 219.0, 3.0)">r</text></g></svg>