<?xml version="1.0" encoding="UTF-8" standalone="no"?><svg xmlns="http://www.w3.org/2000/svg" xmlns:xlink="http://www.w3.org/1999/xlink" clip-rule="evenodd" stroke-miterlimit="4.00" viewBox="0 0 242 27"><desc>SVG generated by Keynote</desc><defs></defs><g transform="matrix(1.00, 0.00, -0.00, -1.00, 0.0, 27.0)"><text xml:space="preserve" font-family="VarelaRound" font-size="24.0" fill="#FEFFFF" transform="matrix(1.00, 0.00, -0.00, -1.00, -1.0, 8.0)">I</text><text xml:space="preserve" font-family="VarelaRound" font-size="24.0" fill="#FEFFFF" transform="matrix(1.00, 0.00, -0.00, -1.00, 5.6, 8.0)">n</text><text xml:space="preserve" font-family="VarelaRound" font-size="24.0" fill="#FEFFFF" transform="matrix(1.00, 0.00, -0.00, -1.00, 20.2, 8.0)">d</text><text xml:space="preserve" font-family="VarelaRound" font-size="24.0" fill="#FEFFFF" transform="matrix(1.00, 0.00, -0.00, -1.00, 35.4, 8.0)">u</text><text xml:space="preserve" font-family="VarelaRound" font-size="24.0" fill="#FEFFFF" transform="matrix(1.00, 0.00, -0.00, -1.00, 50.0, 8.0)">s</text><text xml:space="preserve" font-family="VarelaRound" font-size="24.0" fill="#FEFFFF" transform="matrix(1.00, 0.00, -0.00, -1.00, 61.4, 8.0)">t</text><text xml:space="preserve" font-family="VarelaRound" font-size="24.0" fill="#FEFFFF" transform="matrix(1.00, 0.00, -0.00, -1.00, 70.6, 8.0)">r</text><text xml:space="preserve" font-family="VarelaRound" font-size="24.0" fill="#FEFFFF" transform="matrix(1.00, 0.00, -0.00, -1.00, 79.9, 8.0)">y</text><text xml:space="preserve" font-family="VarelaRound" font-size="24.0" fill="#FEFFFF" transform="matrix(1.00, 0.00, -0.00, -1.00, 92.7, 8.0)"> </text><text xml:space="preserve" font-family="VarelaRound" font-size="24.0" fill="#FEFFFF" transform="matrix(1.00, 0.00, -0.00, -1.00, 99.0, 8.0)">B</text><text xml:space="preserve" font-family="VarelaRound" font-size="24.0" fill="#FEFFFF" transform="matrix(1.00, 0.00, -0.00, -1.00, 115.5, 8.0)">e</text><text xml:space="preserve" font-family="VarelaRound" font-size="24.0" fill="#FEFFFF" transform="matrix(1.00, 0.00, -0.00, -1.00, 129.2, 8.0)">n</text><text xml:space="preserve" font-family="VarelaRound" font-size="24.0" fill="#FEFFFF" transform="matrix(1.00, 0.00, -0.00, -1.00, 143.8, 8.0)">c</text><text xml:space="preserve" font-family="VarelaRound" font-size="24.0" fill="#FEFFFF" transform="matrix(1.00, 0.00, -0.00, -1.00, 156.6, 8.0)">h</text><text xml:space="preserve" font-family="VarelaRound" font-size="24.0" fill="#FEFFFF" transform="matrix(1.00, 0.00, -0.00, -1.00, 171.2, 8.0)">m</text><text xml:space="preserve" font-family="VarelaRound" font-size="24.0" fill="#FEFFFF" transform="matrix(1.00, 0.00, -0.00, -1.00, 193.3, 8.0)">a</text><text xml:space="preserve" font-family="VarelaRound" font-size="24.0" fill="#FEFFFF" transform="matrix(1.00, 0.00, -0.00, -1.00, 206.6, 8.0)">r</text><text xml:space="preserve" font-family="VarelaRound" font-size="24.0" fill="#FEFFFF" transform="matrix(1.00, 0.00, -0.00, -1.00, 215.9, 8.0)">k</text><text xml:space="preserve" font-family="VarelaRound" font-size="24.0" fill="#FEFFFF" transform="matrix(1.00, 0.00, -0.00, -1.00, 229.0, 8.0)">s</text></g></svg>