<?xml version="1.0" encoding="UTF-8" standalone="no"?><svg xmlns="http://www.w3.org/2000/svg" xmlns:xlink="http://www.w3.org/1999/xlink" clip-rule="evenodd" stroke-miterlimit="4.00" viewBox="0 0 287 27"><desc>SVG generated by Keynote</desc><defs></defs><g transform="matrix(1.00, 0.00, -0.00, -1.00, 0.0, 27.0)"><text xml:space="preserve" font-family="VarelaRound" font-size="24.0" fill="#FEFFFF" transform="matrix(1.00, 0.00, -0.00, -1.00, 1.0, 8.0)">&gt;</text><text xml:space="preserve" font-family="VarelaRound" font-size="24.0" fill="#FEFFFF" transform="matrix(1.00, 0.00, -0.00, -1.00, 14.9, 8.0)"> </text><text xml:space="preserve" font-family="VarelaRound" font-size="24.0" fill="#FEFFFF" transform="matrix(1.00, 0.00, -0.00, -1.00, 21.2, 8.0)">E</text><text xml:space="preserve" font-family="VarelaRound" font-size="24.0" fill="#FEFFFF" transform="matrix(1.00, 0.00, -0.00, -1.00, 36.3, 8.0)">a</text><text xml:space="preserve" font-family="VarelaRound" font-size="24.0" fill="#FEFFFF" transform="matrix(1.00, 0.00, -0.00, -1.00, 49.6, 8.0)">s</text><text xml:space="preserve" font-family="VarelaRound" font-size="24.0" fill="#FEFFFF" transform="matrix(1.00, 0.00, -0.00, -1.00, 61.1, 8.0)">y</text><text xml:space="preserve" font-family="VarelaRound" font-size="24.0" fill="#FEFFFF" transform="matrix(1.00, 0.00, -0.00, -1.00, 73.9, 8.0)"> </text><text xml:space="preserve" font-family="VarelaRound" font-size="24.0" fill="#FEFFFF" transform="matrix(1.00, 0.00, -0.00, -1.00, 80.2, 8.0)">t</text><text xml:space="preserve" font-family="VarelaRound" font-size="24.0" fill="#FEFFFF" transform="matrix(1.00, 0.00, -0.00, -1.00, 89.4, 8.0)">o</text><text xml:space="preserve" font-family="VarelaRound" font-size="24.0" fill="#FEFFFF" transform="matrix(1.00, 0.00, -0.00, -1.00, 104.0, 8.0)"> </text><text xml:space="preserve" font-family="VarelaRound" font-size="24.0" fill="#FEFFFF" transform="matrix(1.00, 0.00, -0.00, -1.00, 110.2, 8.0)">s</text><text xml:space="preserve" font-family="VarelaRound" font-size="24.0" fill="#FEFFFF" transform="matrix(1.00, 0.00, -0.00, -1.00, 121.7, 8.0)">h</text><text xml:space="preserve" font-family="VarelaRound" font-size="24.0" fill="#FEFFFF" transform="matrix(1.00, 0.00, -0.00, -1.00, 136.4, 8.0)">a</text><text xml:space="preserve" font-family="VarelaRound" font-size="24.0" fill="#FEFFFF" transform="matrix(1.00, 0.00, -0.00, -1.00, 149.7, 8.0)">r</text><text xml:space="preserve" font-family="VarelaRound" font-size="24.0" fill="#FEFFFF" transform="matrix(1.00, 0.00, -0.00, -1.00, 159.0, 8.0)">e</text><text xml:space="preserve" font-family="VarelaRound" font-size="24.0" fill="#FEFFFF" transform="matrix(1.00, 0.00, -0.00, -1.00, 172.6, 8.0)"> </text><text xml:space="preserve" font-family="VarelaRound" font-size="24.0" fill="#FEFFFF" transform="matrix(1.00, 0.00, -0.00, -1.00, 178.9, 8.0)">&amp;</text><text xml:space="preserve" font-family="VarelaRound" font-size="24.0" fill="#FEFFFF" transform="matrix(1.00, 0.00, -0.00, -1.00, 196.5, 8.0)"> </text><text xml:space="preserve" font-family="VarelaRound" font-size="24.0" fill="#FEFFFF" transform="matrix(1.00, 0.00, -0.00, -1.00, 202.7, 8.0)">d</text><text xml:space="preserve" font-family="VarelaRound" font-size="24.0" fill="#FEFFFF" transform="matrix(1.00, 0.00, -0.00, -1.00, 217.8, 8.0)">i</text><text xml:space="preserve" font-family="VarelaRound" font-size="24.0" fill="#FEFFFF" transform="matrix(1.00, 0.00, -0.00, -1.00, 224.0, 8.0)">s</text><text xml:space="preserve" font-family="VarelaRound" font-size="24.0" fill="#FEFFFF" transform="matrix(1.00, 0.00, -0.00, -1.00, 235.5, 8.0)">c</text><text xml:space="preserve" font-family="VarelaRound" font-size="24.0" fill="#FEFFFF" transform="matrix(1.00, 0.00, -0.00, -1.00, 248.4, 8.0)">u</text><text xml:space="preserve" font-family="VarelaRound" font-size="24.0" fill="#FEFFFF" transform="matrix(1.00, 0.00, -0.00, -1.00, 263.0, 8.0)">s</text><text xml:space="preserve" font-family="VarelaRound" font-size="24.0" fill="#FEFFFF" transform="matrix(1.00, 0.00, -0.00, -1.00, 274.6, 8.0)">s</text></g></svg>