<?xml version="1.0" encoding="UTF-8" standalone="no"?><svg xmlns="http://www.w3.org/2000/svg" xmlns:xlink="http://www.w3.org/1999/xlink" clip-rule="evenodd" stroke-miterlimit="4.00" viewBox="0 0 646 109"><desc>SVG generated by Keynote</desc><defs></defs><g transform="matrix(1.00, 0.00, -0.00, -1.00, 0.0, 109.0)"><text xml:space="preserve" font-family="VarelaRound" font-size="48.0" fill="#FEFFFF" transform="matrix(1.00, 0.00, -0.00, -1.00, 81.0, 71.0)">T</text><text xml:space="preserve" font-family="VarelaRound" font-size="48.0" fill="#FEFFFF" transform="matrix(1.00, 0.00, -0.00, -1.00, 106.2, 71.0)">o</text><text xml:space="preserve" font-family="VarelaRound" font-size="48.0" fill="#FEFFFF" transform="matrix(1.00, 0.00, -0.00, -1.00, 135.4, 71.0)"> </text><text xml:space="preserve" font-family="VarelaRound" font-size="48.0" fill="#FEFFFF" transform="matrix(1.00, 0.00, -0.00, -1.00, 147.9, 71.0)">k</text><text xml:space="preserve" font-family="VarelaRound" font-size="48.0" fill="#FEFFFF" transform="matrix(1.00, 0.00, -0.00, -1.00, 174.1, 71.0)">n</text><text xml:space="preserve" font-family="VarelaRound" font-size="48.0" fill="#FEFFFF" transform="matrix(1.00, 0.00, -0.00, -1.00, 203.4, 71.0)">o</text><text xml:space="preserve" font-family="VarelaRound" font-size="48.0" fill="#FEFFFF" transform="matrix(1.00, 0.00, -0.00, -1.00, 232.5, 71.0)">w</text><text xml:space="preserve" font-family="VarelaRound" font-size="48.0" fill="#FEFFFF" transform="matrix(1.00, 0.00, -0.00, -1.00, 270.2, 71.0)"> </text><text xml:space="preserve" font-family="VarelaRound" font-size="48.0" fill="#FEFFFF" transform="matrix(1.00, 0.00, -0.00, -1.00, 282.7, 71.0)">y</text><text xml:space="preserve" font-family="VarelaRound" font-size="48.0" fill="#FEFFFF" transform="matrix(1.00, 0.00, -0.00, -1.00, 308.0, 71.0)">o</text><text xml:space="preserve" font-family="VarelaRound" font-size="48.0" fill="#FEFFFF" transform="matrix(1.00, 0.00, -0.00, -1.00, 337.2, 71.0)">u</text><text xml:space="preserve" font-family="VarelaRound" font-size="48.0" fill="#FEFFFF" transform="matrix(1.00, 0.00, -0.00, -1.00, 366.5, 71.0)">r</text><text xml:space="preserve" font-family="VarelaRound" font-size="48.0" fill="#FEFFFF" transform="matrix(1.00, 0.00, -0.00, -1.00, 385.1, 71.0)"> </text><text xml:space="preserve" font-family="VarelaRound" font-size="48.0" fill="#FEFFFF" transform="matrix(1.00, 0.00, -0.00, -1.00, 397.6, 71.0)">p</text><text xml:space="preserve" font-family="VarelaRound" font-size="48.0" fill="#FEFFFF" transform="matrix(1.00, 0.00, -0.00, -1.00, 427.8, 71.0)">e</text><text xml:space="preserve" font-family="VarelaRound" font-size="48.0" fill="#FEFFFF" transform="matrix(1.00, 0.00, -0.00, -1.00, 455.2, 71.0)">o</text><text xml:space="preserve" font-family="VarelaRound" font-size="48.0" fill="#FEFFFF" transform="matrix(1.00, 0.00, -0.00, -1.00, 484.4, 71.0)">p</text><text xml:space="preserve" font-family="VarelaRound" font-size="48.0" fill="#FEFFFF" transform="matrix(1.00, 0.00, -0.00, -1.00, 514.7, 71.0)">l</text><text xml:space="preserve" font-family="VarelaRound" font-size="48.0" fill="#FEFFFF" transform="matrix(1.00, 0.00, -0.00, -1.00, 527.4, 71.0)">e</text><text xml:space="preserve" font-family="VarelaRound" font-size="48.0" fill="#FEFFFF" transform="matrix(1.00, 0.00, -0.00, -1.00, 554.8, 71.0)">,</text><text xml:space="preserve" font-family="VarelaRound" font-size="48.0" fill="#FEFFFF" transform="matrix(1.00, 0.00, -0.00, -1.00, 567.2, 71.0)"> </text><text xml:space="preserve" font-family="VarelaRound" font-size="48.0" fill="#FEFFFF" transform="matrix(1.00, 0.00, -0.00, -1.00, 579.7, 71.0)"> </text><text xml:space="preserve" font-family="VarelaRound" font-size="48.0" fill="#FEFFFF" transform="matrix(1.00, 0.00, -0.00, -1.00, 0.0, 13.0)">y</text><text xml:space="preserve" font-family="VarelaRound" font-size="48.0" fill="#FEFFFF" transform="matrix(1.00, 0.00, -0.00, -1.00, 25.3, 13.0)">o</text><text xml:space="preserve" font-family="VarelaRound" font-size="48.0" fill="#FEFFFF" transform="matrix(1.00, 0.00, -0.00, -1.00, 54.5, 13.0)">u</text><text xml:space="preserve" font-family="VarelaRound" font-size="48.0" fill="#FEFFFF" transform="matrix(1.00, 0.00, -0.00, -1.00, 83.8, 13.0)"> </text><text xml:space="preserve" font-family="VarelaRound" font-size="48.0" fill="#FEFFFF" transform="matrix(1.00, 0.00, -0.00, -1.00, 96.3, 13.0)">n</text><text xml:space="preserve" font-family="VarelaRound" font-size="48.0" fill="#FEFFFF" transform="matrix(1.00, 0.00, -0.00, -1.00, 125.5, 13.0)">e</text><text xml:space="preserve" font-family="VarelaRound" font-size="48.0" fill="#FEFFFF" transform="matrix(1.00, 0.00, -0.00, -1.00, 152.9, 13.0)">e</text><text xml:space="preserve" font-family="VarelaRound" font-size="48.0" fill="#FEFFFF" transform="matrix(1.00, 0.00, -0.00, -1.00, 180.2, 13.0)">d</text><text xml:space="preserve" font-family="VarelaRound" font-size="48.0" fill="#FEFFFF" transform="matrix(1.00, 0.00, -0.00, -1.00, 210.5, 13.0)"> </text><text xml:space="preserve" font-family="VarelaRound" font-size="48.0" fill="#FEFFFF" transform="matrix(1.00, 0.00, -0.00, -1.00, 223.0, 13.0)">a</text><text xml:space="preserve" font-family="VarelaRound" font-size="48.0" fill="#FEFFFF" transform="matrix(1.00, 0.00, -0.00, -1.00, 249.6, 13.0)"> </text><text xml:space="preserve" font-family="VarelaRound" font-size="48.0" fill="#FEFFFF" transform="matrix(1.00, 0.00, -0.00, -1.00, 262.1, 13.0)">n</text><text xml:space="preserve" font-family="VarelaRound" font-size="48.0" fill="#FEFFFF" transform="matrix(1.00, 0.00, -0.00, -1.00, 291.4, 13.0)">e</text><text xml:space="preserve" font-family="VarelaRound" font-size="48.0" fill="#FEFFFF" transform="matrix(1.00, 0.00, -0.00, -1.00, 318.7, 13.0)">w</text><text xml:space="preserve" font-family="VarelaRound" font-size="48.0" fill="#FEFFFF" transform="matrix(1.00, 0.00, -0.00, -1.00, 356.4, 13.0)"> </text><text xml:space="preserve" font-family="VarelaRound" font-size="48.0" fill="#FEFFFF" transform="matrix(1.00, 0.00, -0.00, -1.00, 368.9, 13.0)">p</text><text xml:space="preserve" font-family="VarelaRound" font-size="48.0" fill="#FEFFFF" transform="matrix(1.00, 0.00, -0.00, -1.00, 399.2, 13.0)">e</text><text xml:space="preserve" font-family="VarelaRound" font-size="48.0" fill="#FEFFFF" transform="matrix(1.00, 0.00, -0.00, -1.00, 426.5, 13.0)">r</text><text xml:space="preserve" font-family="VarelaRound" font-size="48.0" fill="#FEFFFF" transform="matrix(1.00, 0.00, -0.00, -1.00, 445.1, 13.0)">s</text><text xml:space="preserve" font-family="VarelaRound" font-size="48.0" fill="#FEFFFF" transform="matrix(1.00, 0.00, -0.00, -1.00, 468.1, 13.0)">p</text><text xml:space="preserve" font-family="VarelaRound" font-size="48.0" fill="#FEFFFF" transform="matrix(1.00, 0.00, -0.00, -1.00, 498.4, 13.0)">e</text><text xml:space="preserve" font-family="VarelaRound" font-size="48.0" fill="#FEFFFF" transform="matrix(1.00, 0.00, -0.00, -1.00, 525.8, 13.0)">c</text><text xml:space="preserve" font-family="VarelaRound" font-size="48.0" fill="#FEFFFF" transform="matrix(1.00, 0.00, -0.00, -1.00, 551.5, 13.0)">t</text><text xml:space="preserve" font-family="VarelaRound" font-size="48.0" fill="#FEFFFF" transform="matrix(1.00, 0.00, -0.00, -1.00, 570.0, 13.0)">i</text><text xml:space="preserve" font-family="VarelaRound" font-size="48.0" fill="#FEFFFF" transform="matrix(1.00, 0.00, -0.00, -1.00, 582.3, 13.0)">v</text><text xml:space="preserve" font-family="VarelaRound" font-size="48.0" fill="#FEFFFF" transform="matrix(1.00, 0.00, -0.00, -1.00, 607.4, 13.0)">e</text><text xml:space="preserve" font-family="VarelaRound" font-size="48.0" fill="#FEFFFF" transform="matrix(1.00, 0.00, -0.00, -1.00, 634.8, 13.0)">.</text></g></svg>