<?xml version="1.0" encoding="UTF-8" standalone="no"?><svg xmlns="http://www.w3.org/2000/svg" xmlns:xlink="http://www.w3.org/1999/xlink" clip-rule="evenodd" stroke-miterlimit="4.00" viewBox="0 0 489 39"><desc>SVG generated by Keynote</desc><defs></defs><g transform="matrix(1.00, 0.00, -0.00, -1.00, 0.0, 39.0)"><text xml:space="preserve" font-family="VarelaRound" font-size="36.0" fill="#FEFFFF" transform="matrix(1.00, 0.00, -0.00, -1.00, -2.0, 11.0)">N</text><text xml:space="preserve" font-family="VarelaRound" font-size="36.0" fill="#FEFFFF" transform="matrix(1.00, 0.00, -0.00, -1.00, 26.5, 11.0)">a</text><text xml:space="preserve" font-family="VarelaRound" font-size="36.0" fill="#FEFFFF" transform="matrix(1.00, 0.00, -0.00, -1.00, 46.1, 11.0)">v</text><text xml:space="preserve" font-family="VarelaRound" font-size="36.0" fill="#FEFFFF" transform="matrix(1.00, 0.00, -0.00, -1.00, 65.2, 11.0)">i</text><text xml:space="preserve" font-family="VarelaRound" font-size="36.0" fill="#FEFFFF" transform="matrix(1.00, 0.00, -0.00, -1.00, 74.5, 11.0)">g</text><text xml:space="preserve" font-family="VarelaRound" font-size="36.0" fill="#FEFFFF" transform="matrix(1.00, 0.00, -0.00, -1.00, 97.2, 11.0)">a</text><text xml:space="preserve" font-family="VarelaRound" font-size="36.0" fill="#FEFFFF" transform="matrix(1.00, 0.00, -0.00, -1.00, 117.0, 11.0)">t</text><text xml:space="preserve" font-family="VarelaRound" font-size="36.0" fill="#FEFFFF" transform="matrix(1.00, 0.00, -0.00, -1.00, 130.8, 11.0)">e</text><text xml:space="preserve" font-family="VarelaRound" font-size="36.0" fill="#FEFFFF" transform="matrix(1.00, 0.00, -0.00, -1.00, 151.3, 11.0)"> </text><text xml:space="preserve" font-family="VarelaRound" font-size="36.0" fill="#FEFFFF" transform="matrix(1.00, 0.00, -0.00, -1.00, 160.7, 11.0)">&amp;</text><text xml:space="preserve" font-family="VarelaRound" font-size="36.0" fill="#FEFFFF" transform="matrix(1.00, 0.00, -0.00, -1.00, 187.0, 11.0)"> </text><text xml:space="preserve" font-family="VarelaRound" font-size="36.0" fill="#FEFFFF" transform="matrix(1.00, 0.00, -0.00, -1.00, 196.4, 11.0)">s</text><text xml:space="preserve" font-family="VarelaRound" font-size="36.0" fill="#FEFFFF" transform="matrix(1.00, 0.00, -0.00, -1.00, 213.7, 11.0)">h</text><text xml:space="preserve" font-family="VarelaRound" font-size="36.0" fill="#FEFFFF" transform="matrix(1.00, 0.00, -0.00, -1.00, 235.6, 11.0)">a</text><text xml:space="preserve" font-family="VarelaRound" font-size="36.0" fill="#FEFFFF" transform="matrix(1.00, 0.00, -0.00, -1.00, 255.6, 11.0)">r</text><text xml:space="preserve" font-family="VarelaRound" font-size="36.0" fill="#FEFFFF" transform="matrix(1.00, 0.00, -0.00, -1.00, 269.5, 11.0)">e</text><text xml:space="preserve" font-family="VarelaRound" font-size="36.0" fill="#FEFFFF" transform="matrix(1.00, 0.00, -0.00, -1.00, 290.0, 11.0)"> </text><text xml:space="preserve" font-family="VarelaRound" font-size="36.0" fill="#FEFFFF" transform="matrix(1.00, 0.00, -0.00, -1.00, 299.4, 11.0)">g</text><text xml:space="preserve" font-family="VarelaRound" font-size="36.0" fill="#FEFFFF" transform="matrix(1.00, 0.00, -0.00, -1.00, 322.1, 11.0)">a</text><text xml:space="preserve" font-family="VarelaRound" font-size="36.0" fill="#FEFFFF" transform="matrix(1.00, 0.00, -0.00, -1.00, 342.1, 11.0)">p</text><text xml:space="preserve" font-family="VarelaRound" font-size="36.0" fill="#FEFFFF" transform="matrix(1.00, 0.00, -0.00, -1.00, 364.8, 11.0)">s</text><text xml:space="preserve" font-family="VarelaRound" font-size="36.0" fill="#FEFFFF" transform="matrix(1.00, 0.00, -0.00, -1.00, 382.1, 11.0)"> </text><text xml:space="preserve" font-family="VarelaRound" font-size="36.0" fill="#FEFFFF" transform="matrix(1.00, 0.00, -0.00, -1.00, 391.4, 11.0)">e</text><text xml:space="preserve" font-family="VarelaRound" font-size="36.0" fill="#FEFFFF" transform="matrix(1.00, 0.00, -0.00, -1.00, 412.0, 11.0)">a</text><text xml:space="preserve" font-family="VarelaRound" font-size="36.0" fill="#FEFFFF" transform="matrix(1.00, 0.00, -0.00, -1.00, 431.9, 11.0)">s</text><text xml:space="preserve" font-family="VarelaRound" font-size="36.0" fill="#FEFFFF" transform="matrix(1.00, 0.00, -0.00, -1.00, 449.2, 11.0)">i</text><text xml:space="preserve" font-family="VarelaRound" font-size="36.0" fill="#FEFFFF" transform="matrix(1.00, 0.00, -0.00, -1.00, 458.5, 11.0)">l</text><text xml:space="preserve" font-family="VarelaRound" font-size="36.0" fill="#FEFFFF" transform="matrix(1.00, 0.00, -0.00, -1.00, 468.0, 11.0)">y</text></g></svg>