<?xml version="1.0" encoding="UTF-8" standalone="no"?><svg xmlns="http://www.w3.org/2000/svg" xmlns:xlink="http://www.w3.org/1999/xlink" clip-rule="evenodd" stroke-miterlimit="4.00" viewBox="0 0 539 297"><desc>SVG generated by Keynote</desc><defs></defs><g transform="matrix(1.00, 0.00, -0.00, -1.00, 0.0, 297.0)"><text xml:space="preserve" font-family="VarelaRound" font-size="36.0" fill="#FEFFFF" transform="matrix(1.00, 0.00, -0.00, -1.00, 1.0, 269.0)">A</text><text xml:space="preserve" font-family="VarelaRound" font-size="36.0" fill="#FEFFFF" transform="matrix(1.00, 0.00, -0.00, -1.00, 25.7, 269.0)">e</text><text xml:space="preserve" font-family="VarelaRound" font-size="36.0" fill="#FEFFFF" transform="matrix(1.00, 0.00, -0.00, -1.00, 46.2, 269.0)">r</text><text xml:space="preserve" font-family="VarelaRound" font-size="36.0" fill="#FEFFFF" transform="matrix(1.00, 0.00, -0.00, -1.00, 60.1, 269.0)">i</text><text xml:space="preserve" font-family="VarelaRound" font-size="36.0" fill="#FEFFFF" transform="matrix(1.00, 0.00, -0.00, -1.00, 69.4, 269.0)">a</text><text xml:space="preserve" font-family="VarelaRound" font-size="36.0" fill="#FEFFFF" transform="matrix(1.00, 0.00, -0.00, -1.00, 89.3, 269.0)">l</text><text xml:space="preserve" font-family="VarelaRound" font-size="36.0" fill="#FEFFFF" transform="matrix(1.00, 0.00, -0.00, -1.00, 98.9, 269.0)"> </text><text xml:space="preserve" font-family="VarelaRound" font-size="36.0" fill="#FEFFFF" transform="matrix(1.00, 0.00, -0.00, -1.00, 108.2, 269.0)">v</text><text xml:space="preserve" font-family="VarelaRound" font-size="36.0" fill="#FEFFFF" transform="matrix(1.00, 0.00, -0.00, -1.00, 127.3, 269.0)">i</text><text xml:space="preserve" font-family="VarelaRound" font-size="36.0" fill="#FEFFFF" transform="matrix(1.00, 0.00, -0.00, -1.00, 136.6, 269.0)">e</text><text xml:space="preserve" font-family="VarelaRound" font-size="36.0" fill="#FEFFFF" transform="matrix(1.00, 0.00, -0.00, -1.00, 157.1, 269.0)">w</text><text xml:space="preserve" font-family="VarelaRound" font-size="36.0" fill="#FEFFFF" transform="matrix(1.00, 0.00, -0.00, -1.00, 185.4, 269.0)"> </text><text xml:space="preserve" font-family="VarelaRound" font-size="36.0" fill="#FEFFFF" transform="matrix(1.00, 0.00, -0.00, -1.00, 194.7, 269.0)">o</text><text xml:space="preserve" font-family="VarelaRound" font-size="36.0" fill="#FEFFFF" transform="matrix(1.00, 0.00, -0.00, -1.00, 216.6, 269.0)">n</text><text xml:space="preserve" font-family="VarelaRound" font-size="36.0" fill="#FEFFFF" transform="matrix(1.00, 0.00, -0.00, -1.00, 238.5, 269.0)"> </text><text xml:space="preserve" font-family="VarelaRound" font-size="36.0" fill="#FEFFFF" transform="matrix(1.00, 0.00, -0.00, -1.00, 247.9, 269.0)">w</text><text xml:space="preserve" font-family="VarelaRound" font-size="36.0" fill="#FEFFFF" transform="matrix(1.00, 0.00, -0.00, -1.00, 276.1, 269.0)">o</text><text xml:space="preserve" font-family="VarelaRound" font-size="36.0" fill="#FEFFFF" transform="matrix(1.00, 0.00, -0.00, -1.00, 298.0, 269.0)">r</text><text xml:space="preserve" font-family="VarelaRound" font-size="36.0" fill="#FEFFFF" transform="matrix(1.00, 0.00, -0.00, -1.00, 312.0, 269.0)">k</text><text xml:space="preserve" font-family="VarelaRound" font-size="36.0" fill="#FEFFFF" transform="matrix(1.00, 0.00, -0.00, -1.00, 331.6, 269.0)">f</text><text xml:space="preserve" font-family="VarelaRound" font-size="36.0" fill="#FEFFFF" transform="matrix(1.00, 0.00, -0.00, -1.00, 345.0, 269.0)">o</text><text xml:space="preserve" font-family="VarelaRound" font-size="36.0" fill="#FEFFFF" transform="matrix(1.00, 0.00, -0.00, -1.00, 366.9, 269.0)">r</text><text xml:space="preserve" font-family="VarelaRound" font-size="36.0" fill="#FEFFFF" transform="matrix(1.00, 0.00, -0.00, -1.00, 380.8, 269.0)">c</text><text xml:space="preserve" font-family="VarelaRound" font-size="36.0" fill="#FEFFFF" transform="matrix(1.00, 0.00, -0.00, -1.00, 400.0, 269.0)">e</text><text xml:space="preserve" font-family="VarelaRound" font-size="36.0" fill="#FEFFFF" transform="matrix(1.00, 0.00, -0.00, -1.00, 420.5, 269.0)"> </text><text xml:space="preserve" font-family="VarelaRound" font-size="36.0" fill="#FEFFFF" transform="matrix(1.00, 0.00, -0.00, -1.00, 429.8, 269.0)">r</text><text xml:space="preserve" font-family="VarelaRound" font-size="36.0" fill="#FEFFFF" transform="matrix(1.00, 0.00, -0.00, -1.00, 443.8, 269.0)">e</text><text xml:space="preserve" font-family="VarelaRound" font-size="36.0" fill="#FEFFFF" transform="matrix(1.00, 0.00, -0.00, -1.00, 464.3, 269.0)">a</text><text xml:space="preserve" font-family="VarelaRound" font-size="36.0" fill="#FEFFFF" transform="matrix(1.00, 0.00, -0.00, -1.00, 484.3, 269.0)">l</text><text xml:space="preserve" font-family="VarelaRound" font-size="36.0" fill="#FEFFFF" transform="matrix(1.00, 0.00, -0.00, -1.00, 493.8, 269.0)">i</text><text xml:space="preserve" font-family="VarelaRound" font-size="36.0" fill="#FEFFFF" transform="matrix(1.00, 0.00, -0.00, -1.00, 503.1, 269.0)">t</text><text xml:space="preserve" font-family="VarelaRound" font-size="36.0" fill="#FEFFFF" transform="matrix(1.00, 0.00, -0.00, -1.00, 517.4, 269.0)">y</text><text xml:space="preserve" font-family="VarelaRound" font-size="36.0" fill="#FEFFFF" transform="matrix(1.00, 0.00, -0.00, -1.00, 536.6, 269.0)"> </text><text xml:space="preserve" font-family="VarelaRound" font-size="36.0" fill="#FEFFFF" transform="matrix(1.00, 0.00, -0.00, -1.00, 24.0, 183.0)">N</text><text xml:space="preserve" font-family="VarelaRound" font-size="36.0" fill="#FEFFFF" transform="matrix(1.00, 0.00, -0.00, -1.00, 52.5, 183.0)">a</text><text xml:space="preserve" font-family="VarelaRound" font-size="36.0" fill="#FEFFFF" transform="matrix(1.00, 0.00, -0.00, -1.00, 72.1, 183.0)">v</text><text xml:space="preserve" font-family="VarelaRound" font-size="36.0" fill="#FEFFFF" transform="matrix(1.00, 0.00, -0.00, -1.00, 91.2, 183.0)">i</text><text xml:space="preserve" font-family="VarelaRound" font-size="36.0" fill="#FEFFFF" transform="matrix(1.00, 0.00, -0.00, -1.00, 100.5, 183.0)">g</text><text xml:space="preserve" font-family="VarelaRound" font-size="36.0" fill="#FEFFFF" transform="matrix(1.00, 0.00, -0.00, -1.00, 123.2, 183.0)">a</text><text xml:space="preserve" font-family="VarelaRound" font-size="36.0" fill="#FEFFFF" transform="matrix(1.00, 0.00, -0.00, -1.00, 143.0, 183.0)">t</text><text xml:space="preserve" font-family="VarelaRound" font-size="36.0" fill="#FEFFFF" transform="matrix(1.00, 0.00, -0.00, -1.00, 156.8, 183.0)">e</text><text xml:space="preserve" font-family="VarelaRound" font-size="36.0" fill="#FEFFFF" transform="matrix(1.00, 0.00, -0.00, -1.00, 177.3, 183.0)"> </text><text xml:space="preserve" font-family="VarelaRound" font-size="36.0" fill="#FEFFFF" transform="matrix(1.00, 0.00, -0.00, -1.00, 186.7, 183.0)">&amp;</text><text xml:space="preserve" font-family="VarelaRound" font-size="36.0" fill="#FEFFFF" transform="matrix(1.00, 0.00, -0.00, -1.00, 213.0, 183.0)"> </text><text xml:space="preserve" font-family="VarelaRound" font-size="36.0" fill="#FEFFFF" transform="matrix(1.00, 0.00, -0.00, -1.00, 222.4, 183.0)">s</text><text xml:space="preserve" font-family="VarelaRound" font-size="36.0" fill="#FEFFFF" transform="matrix(1.00, 0.00, -0.00, -1.00, 239.7, 183.0)">h</text><text xml:space="preserve" font-family="VarelaRound" font-size="36.0" fill="#FEFFFF" transform="matrix(1.00, 0.00, -0.00, -1.00, 261.6, 183.0)">a</text><text xml:space="preserve" font-family="VarelaRound" font-size="36.0" fill="#FEFFFF" transform="matrix(1.00, 0.00, -0.00, -1.00, 281.6, 183.0)">r</text><text xml:space="preserve" font-family="VarelaRound" font-size="36.0" fill="#FEFFFF" transform="matrix(1.00, 0.00, -0.00, -1.00, 295.5, 183.0)">e</text><text xml:space="preserve" font-family="VarelaRound" font-size="36.0" fill="#FEFFFF" transform="matrix(1.00, 0.00, -0.00, -1.00, 316.0, 183.0)"> </text><text xml:space="preserve" font-family="VarelaRound" font-size="36.0" fill="#FEFFFF" transform="matrix(1.00, 0.00, -0.00, -1.00, 325.4, 183.0)">g</text><text xml:space="preserve" font-family="VarelaRound" font-size="36.0" fill="#FEFFFF" transform="matrix(1.00, 0.00, -0.00, -1.00, 348.1, 183.0)">a</text><text xml:space="preserve" font-family="VarelaRound" font-size="36.0" fill="#FEFFFF" transform="matrix(1.00, 0.00, -0.00, -1.00, 368.1, 183.0)">p</text><text xml:space="preserve" font-family="VarelaRound" font-size="36.0" fill="#FEFFFF" transform="matrix(1.00, 0.00, -0.00, -1.00, 390.8, 183.0)">s</text><text xml:space="preserve" font-family="VarelaRound" font-size="36.0" fill="#FEFFFF" transform="matrix(1.00, 0.00, -0.00, -1.00, 408.1, 183.0)"> </text><text xml:space="preserve" font-family="VarelaRound" font-size="36.0" fill="#FEFFFF" transform="matrix(1.00, 0.00, -0.00, -1.00, 417.4, 183.0)">e</text><text xml:space="preserve" font-family="VarelaRound" font-size="36.0" fill="#FEFFFF" transform="matrix(1.00, 0.00, -0.00, -1.00, 438.0, 183.0)">a</text><text xml:space="preserve" font-family="VarelaRound" font-size="36.0" fill="#FEFFFF" transform="matrix(1.00, 0.00, -0.00, -1.00, 457.9, 183.0)">s</text><text xml:space="preserve" font-family="VarelaRound" font-size="36.0" fill="#FEFFFF" transform="matrix(1.00, 0.00, -0.00, -1.00, 475.2, 183.0)">i</text><text xml:space="preserve" font-family="VarelaRound" font-size="36.0" fill="#FEFFFF" transform="matrix(1.00, 0.00, -0.00, -1.00, 484.5, 183.0)">l</text><text xml:space="preserve" font-family="VarelaRound" font-size="36.0" fill="#FEFFFF" transform="matrix(1.00, 0.00, -0.00, -1.00, 494.0, 183.0)">y</text><text xml:space="preserve" font-family="VarelaRound" font-size="36.0" fill="#FEFFFF" transform="matrix(1.00, 0.00, -0.00, -1.00, 513.2, 183.0)"> </text><text xml:space="preserve" font-family="VarelaRound" font-size="36.0" fill="#FEFFFF" transform="matrix(1.00, 0.00, -0.00, -1.00, 66.0, 97.0)">P</text><text xml:space="preserve" font-family="VarelaRound" font-size="36.0" fill="#FEFFFF" transform="matrix(1.00, 0.00, -0.00, -1.00, 89.8, 97.0)">r</text><text xml:space="preserve" font-family="VarelaRound" font-size="36.0" fill="#FEFFFF" transform="matrix(1.00, 0.00, -0.00, -1.00, 103.7, 97.0)">a</text><text xml:space="preserve" font-family="VarelaRound" font-size="36.0" fill="#FEFFFF" transform="matrix(1.00, 0.00, -0.00, -1.00, 123.7, 97.0)">c</text><text xml:space="preserve" font-family="VarelaRound" font-size="36.0" fill="#FEFFFF" transform="matrix(1.00, 0.00, -0.00, -1.00, 143.0, 97.0)">t</text><text xml:space="preserve" font-family="VarelaRound" font-size="36.0" fill="#FEFFFF" transform="matrix(1.00, 0.00, -0.00, -1.00, 156.8, 97.0)">i</text><text xml:space="preserve" font-family="VarelaRound" font-size="36.0" fill="#FEFFFF" transform="matrix(1.00, 0.00, -0.00, -1.00, 166.1, 97.0)">c</text><text xml:space="preserve" font-family="VarelaRound" font-size="36.0" fill="#FEFFFF" transform="matrix(1.00, 0.00, -0.00, -1.00, 185.2, 97.0)">e</text><text xml:space="preserve" font-family="VarelaRound" font-size="36.0" fill="#FEFFFF" transform="matrix(1.00, 0.00, -0.00, -1.00, 205.8, 97.0)"> </text><text xml:space="preserve" font-family="VarelaRound" font-size="36.0" fill="#FEFFFF" transform="matrix(1.00, 0.00, -0.00, -1.00, 215.1, 97.0)">e</text><text xml:space="preserve" font-family="VarelaRound" font-size="36.0" fill="#FEFFFF" transform="matrix(1.00, 0.00, -0.00, -1.00, 235.6, 97.0)">a</text><text xml:space="preserve" font-family="VarelaRound" font-size="36.0" fill="#FEFFFF" transform="matrix(1.00, 0.00, -0.00, -1.00, 255.6, 97.0)">r</text><text xml:space="preserve" font-family="VarelaRound" font-size="36.0" fill="#FEFFFF" transform="matrix(1.00, 0.00, -0.00, -1.00, 269.5, 97.0)">l</text><text xml:space="preserve" font-family="VarelaRound" font-size="36.0" fill="#FEFFFF" transform="matrix(1.00, 0.00, -0.00, -1.00, 279.1, 97.0)">y</text><text xml:space="preserve" font-family="VarelaRound" font-size="36.0" fill="#FEFFFF" transform="matrix(1.00, 0.00, -0.00, -1.00, 298.3, 97.0)"> </text><text xml:space="preserve" font-family="VarelaRound" font-size="36.0" fill="#FEFFFF" transform="matrix(1.00, 0.00, -0.00, -1.00, 307.6, 97.0)">d</text><text xml:space="preserve" font-family="VarelaRound" font-size="36.0" fill="#FEFFFF" transform="matrix(1.00, 0.00, -0.00, -1.00, 330.3, 97.0)">e</text><text xml:space="preserve" font-family="VarelaRound" font-size="36.0" fill="#FEFFFF" transform="matrix(1.00, 0.00, -0.00, -1.00, 350.9, 97.0)">t</text><text xml:space="preserve" font-family="VarelaRound" font-size="36.0" fill="#FEFFFF" transform="matrix(1.00, 0.00, -0.00, -1.00, 364.7, 97.0)">e</text><text xml:space="preserve" font-family="VarelaRound" font-size="36.0" fill="#FEFFFF" transform="matrix(1.00, 0.00, -0.00, -1.00, 385.2, 97.0)">c</text><text xml:space="preserve" font-family="VarelaRound" font-size="36.0" fill="#FEFFFF" transform="matrix(1.00, 0.00, -0.00, -1.00, 404.5, 97.0)">t</text><text xml:space="preserve" font-family="VarelaRound" font-size="36.0" fill="#FEFFFF" transform="matrix(1.00, 0.00, -0.00, -1.00, 418.3, 97.0)">i</text><text xml:space="preserve" font-family="VarelaRound" font-size="36.0" fill="#FEFFFF" transform="matrix(1.00, 0.00, -0.00, -1.00, 427.6, 97.0)">o</text><text xml:space="preserve" font-family="VarelaRound" font-size="36.0" fill="#FEFFFF" transform="matrix(1.00, 0.00, -0.00, -1.00, 449.5, 97.0)">n</text><text xml:space="preserve" font-family="VarelaRound" font-size="36.0" fill="#FEFFFF" transform="matrix(1.00, 0.00, -0.00, -1.00, 471.4, 97.0)"> </text><text xml:space="preserve" font-family="VarelaRound" font-size="36.0" fill="#FEFFFF" transform="matrix(1.00, 0.00, -0.00, -1.00, 86.0, 11.0)">D</text><text xml:space="preserve" font-family="VarelaRound" font-size="36.0" fill="#FEFFFF" transform="matrix(1.00, 0.00, -0.00, -1.00, 112.6, 11.0)">i</text><text xml:space="preserve" font-family="VarelaRound" font-size="36.0" fill="#FEFFFF" transform="matrix(1.00, 0.00, -0.00, -1.00, 121.9, 11.0)">a</text><text xml:space="preserve" font-family="VarelaRound" font-size="36.0" fill="#FEFFFF" transform="matrix(1.00, 0.00, -0.00, -1.00, 141.9, 11.0)">g</text><text xml:space="preserve" font-family="VarelaRound" font-size="36.0" fill="#FEFFFF" transform="matrix(1.00, 0.00, -0.00, -1.00, 164.6, 11.0)">n</text><text xml:space="preserve" font-family="VarelaRound" font-size="36.0" fill="#FEFFFF" transform="matrix(1.00, 0.00, -0.00, -1.00, 186.5, 11.0)">o</text><text xml:space="preserve" font-family="VarelaRound" font-size="36.0" fill="#FEFFFF" transform="matrix(1.00, 0.00, -0.00, -1.00, 208.4, 11.0)">s</text><text xml:space="preserve" font-family="VarelaRound" font-size="36.0" fill="#FEFFFF" transform="matrix(1.00, 0.00, -0.00, -1.00, 225.7, 11.0)">e</text><text xml:space="preserve" font-family="VarelaRound" font-size="36.0" fill="#FEFFFF" transform="matrix(1.00, 0.00, -0.00, -1.00, 246.2, 11.0)"> </text><text xml:space="preserve" font-family="VarelaRound" font-size="36.0" fill="#FEFFFF" transform="matrix(1.00, 0.00, -0.00, -1.00, 255.6, 11.0)">r</text><text xml:space="preserve" font-family="VarelaRound" font-size="36.0" fill="#FEFFFF" transform="matrix(1.00, 0.00, -0.00, -1.00, 269.5, 11.0)">o</text><text xml:space="preserve" font-family="VarelaRound" font-size="36.0" fill="#FEFFFF" transform="matrix(1.00, 0.00, -0.00, -1.00, 291.4, 11.0)">o</text><text xml:space="preserve" font-family="VarelaRound" font-size="36.0" fill="#FEFFFF" transform="matrix(1.00, 0.00, -0.00, -1.00, 313.1, 11.0)">t</text><text xml:space="preserve" font-family="VarelaRound" font-size="36.0" fill="#FEFFFF" transform="matrix(1.00, 0.00, -0.00, -1.00, 326.9, 11.0)"> </text><text xml:space="preserve" font-family="VarelaRound" font-size="36.0" fill="#FEFFFF" transform="matrix(1.00, 0.00, -0.00, -1.00, 336.3, 11.0)">c</text><text xml:space="preserve" font-family="VarelaRound" font-size="36.0" fill="#FEFFFF" transform="matrix(1.00, 0.00, -0.00, -1.00, 355.6, 11.0)">a</text><text xml:space="preserve" font-family="VarelaRound" font-size="36.0" fill="#FEFFFF" transform="matrix(1.00, 0.00, -0.00, -1.00, 375.4, 11.0)">u</text><text xml:space="preserve" font-family="VarelaRound" font-size="36.0" fill="#FEFFFF" transform="matrix(1.00, 0.00, -0.00, -1.00, 397.4, 11.0)">s</text><text xml:space="preserve" font-family="VarelaRound" font-size="36.0" fill="#FEFFFF" transform="matrix(1.00, 0.00, -0.00, -1.00, 414.7, 11.0)">e</text><text xml:space="preserve" font-family="VarelaRound" font-size="36.0" fill="#FEFFFF" transform="matrix(1.00, 0.00, -0.00, -1.00, 435.2, 11.0)">s</text></g></svg>