<?xml version="1.0" encoding="UTF-8" standalone="no"?><svg xmlns="http://www.w3.org/2000/svg" xmlns:xlink="http://www.w3.org/1999/xlink" clip-rule="evenodd" stroke-miterlimit="4.00" viewBox="0 0 538 39"><desc>SVG generated by Keynote</desc><defs></defs><g transform="matrix(1.00, 0.00, -0.00, -1.00, 0.0, 39.0)"><text xml:space="preserve" font-family="VarelaRound" font-size="36.0" fill="#FEFFFF" transform="matrix(1.00, 0.00, -0.00, -1.00, 1.0, 11.0)">A</text><text xml:space="preserve" font-family="VarelaRound" font-size="36.0" fill="#FEFFFF" transform="matrix(1.00, 0.00, -0.00, -1.00, 25.7, 11.0)">e</text><text xml:space="preserve" font-family="VarelaRound" font-size="36.0" fill="#FEFFFF" transform="matrix(1.00, 0.00, -0.00, -1.00, 46.2, 11.0)">r</text><text xml:space="preserve" font-family="VarelaRound" font-size="36.0" fill="#FEFFFF" transform="matrix(1.00, 0.00, -0.00, -1.00, 60.1, 11.0)">i</text><text xml:space="preserve" font-family="VarelaRound" font-size="36.0" fill="#FEFFFF" transform="matrix(1.00, 0.00, -0.00, -1.00, 69.4, 11.0)">a</text><text xml:space="preserve" font-family="VarelaRound" font-size="36.0" fill="#FEFFFF" transform="matrix(1.00, 0.00, -0.00, -1.00, 89.3, 11.0)">l</text><text xml:space="preserve" font-family="VarelaRound" font-size="36.0" fill="#FEFFFF" transform="matrix(1.00, 0.00, -0.00, -1.00, 98.9, 11.0)"> </text><text xml:space="preserve" font-family="VarelaRound" font-size="36.0" fill="#FEFFFF" transform="matrix(1.00, 0.00, -0.00, -1.00, 108.2, 11.0)">v</text><text xml:space="preserve" font-family="VarelaRound" font-size="36.0" fill="#FEFFFF" transform="matrix(1.00, 0.00, -0.00, -1.00, 127.3, 11.0)">i</text><text xml:space="preserve" font-family="VarelaRound" font-size="36.0" fill="#FEFFFF" transform="matrix(1.00, 0.00, -0.00, -1.00, 136.6, 11.0)">e</text><text xml:space="preserve" font-family="VarelaRound" font-size="36.0" fill="#FEFFFF" transform="matrix(1.00, 0.00, -0.00, -1.00, 157.1, 11.0)">w</text><text xml:space="preserve" font-family="VarelaRound" font-size="36.0" fill="#FEFFFF" transform="matrix(1.00, 0.00, -0.00, -1.00, 185.4, 11.0)"> </text><text xml:space="preserve" font-family="VarelaRound" font-size="36.0" fill="#FEFFFF" transform="matrix(1.00, 0.00, -0.00, -1.00, 194.7, 11.0)">o</text><text xml:space="preserve" font-family="VarelaRound" font-size="36.0" fill="#FEFFFF" transform="matrix(1.00, 0.00, -0.00, -1.00, 216.6, 11.0)">n</text><text xml:space="preserve" font-family="VarelaRound" font-size="36.0" fill="#FEFFFF" transform="matrix(1.00, 0.00, -0.00, -1.00, 238.5, 11.0)"> </text><text xml:space="preserve" font-family="VarelaRound" font-size="36.0" fill="#FEFFFF" transform="matrix(1.00, 0.00, -0.00, -1.00, 247.9, 11.0)">w</text><text xml:space="preserve" font-family="VarelaRound" font-size="36.0" fill="#FEFFFF" transform="matrix(1.00, 0.00, -0.00, -1.00, 276.1, 11.0)">o</text><text xml:space="preserve" font-family="VarelaRound" font-size="36.0" fill="#FEFFFF" transform="matrix(1.00, 0.00, -0.00, -1.00, 298.0, 11.0)">r</text><text xml:space="preserve" font-family="VarelaRound" font-size="36.0" fill="#FEFFFF" transform="matrix(1.00, 0.00, -0.00, -1.00, 312.0, 11.0)">k</text><text xml:space="preserve" font-family="VarelaRound" font-size="36.0" fill="#FEFFFF" transform="matrix(1.00, 0.00, -0.00, -1.00, 331.6, 11.0)">f</text><text xml:space="preserve" font-family="VarelaRound" font-size="36.0" fill="#FEFFFF" transform="matrix(1.00, 0.00, -0.00, -1.00, 345.0, 11.0)">o</text><text xml:space="preserve" font-family="VarelaRound" font-size="36.0" fill="#FEFFFF" transform="matrix(1.00, 0.00, -0.00, -1.00, 366.9, 11.0)">r</text><text xml:space="preserve" font-family="VarelaRound" font-size="36.0" fill="#FEFFFF" transform="matrix(1.00, 0.00, -0.00, -1.00, 380.8, 11.0)">c</text><text xml:space="preserve" font-family="VarelaRound" font-size="36.0" fill="#FEFFFF" transform="matrix(1.00, 0.00, -0.00, -1.00, 400.0, 11.0)">e</text><text xml:space="preserve" font-family="VarelaRound" font-size="36.0" fill="#FEFFFF" transform="matrix(1.00, 0.00, -0.00, -1.00, 420.5, 11.0)"> </text><text xml:space="preserve" font-family="VarelaRound" font-size="36.0" fill="#FEFFFF" transform="matrix(1.00, 0.00, -0.00, -1.00, 429.8, 11.0)">r</text><text xml:space="preserve" font-family="VarelaRound" font-size="36.0" fill="#FEFFFF" transform="matrix(1.00, 0.00, -0.00, -1.00, 443.8, 11.0)">e</text><text xml:space="preserve" font-family="VarelaRound" font-size="36.0" fill="#FEFFFF" transform="matrix(1.00, 0.00, -0.00, -1.00, 464.3, 11.0)">a</text><text xml:space="preserve" font-family="VarelaRound" font-size="36.0" fill="#FEFFFF" transform="matrix(1.00, 0.00, -0.00, -1.00, 484.3, 11.0)">l</text><text xml:space="preserve" font-family="VarelaRound" font-size="36.0" fill="#FEFFFF" transform="matrix(1.00, 0.00, -0.00, -1.00, 493.8, 11.0)">i</text><text xml:space="preserve" font-family="VarelaRound" font-size="36.0" fill="#FEFFFF" transform="matrix(1.00, 0.00, -0.00, -1.00, 503.1, 11.0)">t</text><text xml:space="preserve" font-family="VarelaRound" font-size="36.0" fill="#FEFFFF" transform="matrix(1.00, 0.00, -0.00, -1.00, 517.4, 11.0)">y</text></g></svg>