<?xml version="1.0" encoding="UTF-8" standalone="no"?><svg xmlns="http://www.w3.org/2000/svg" xmlns:xlink="http://www.w3.org/1999/xlink" clip-rule="evenodd" stroke-miterlimit="4.00" viewBox="0 0 437 391"><desc>SVG generated by Keynote</desc><defs></defs><g transform="matrix(1.00, 0.00, -0.00, -1.00, 0.0, 391.0)"><g><clipPath id="clip-487"><path d="M 0.4 348.8 L 438.7 348.8 L 438.7 392.3 L 0.4 392.3 Z M 0.4 348.8 "></path></clipPath><g clip-path="url(#clip-487)"><text xml:space="preserve" font-family="VarelaRound" font-size="24.0" fill="#52575F" transform="matrix(1.00, 0.00, -0.00, -1.00, 92.0, 363.0)">B</text><text xml:space="preserve" font-family="VarelaRound" font-size="24.0" fill="#52575F" transform="matrix(1.00, 0.00, -0.00, -1.00, 108.6, 363.0)">a</text><text xml:space="preserve" font-family="VarelaRound" font-size="24.0" fill="#52575F" transform="matrix(1.00, 0.00, -0.00, -1.00, 122.0, 363.0)">d</text><text xml:space="preserve" font-family="VarelaRound" font-size="24.0" fill="#52575F" transform="matrix(1.00, 0.00, -0.00, -1.00, 137.1, 363.0)"> </text><text xml:space="preserve" font-family="VarelaRound" font-size="24.0" fill="#52575F" transform="matrix(1.00, 0.00, -0.00, -1.00, 143.3, 363.0)">d</text><text xml:space="preserve" font-family="VarelaRound" font-size="24.0" fill="#52575F" transform="matrix(1.00, 0.00, -0.00, -1.00, 158.5, 363.0)">a</text><text xml:space="preserve" font-family="VarelaRound" font-size="24.0" fill="#52575F" transform="matrix(1.00, 0.00, -0.00, -1.00, 171.7, 363.0)">t</text><text xml:space="preserve" font-family="VarelaRound" font-size="24.0" fill="#52575F" transform="matrix(1.00, 0.00, -0.00, -1.00, 180.9, 363.0)">a</text><text xml:space="preserve" font-family="VarelaRound" font-size="24.0" fill="#52575F" transform="matrix(1.00, 0.00, -0.00, -1.00, 194.2, 363.0)"> </text><text xml:space="preserve" font-family="VarelaRound" font-size="24.0" fill="#52575F" transform="matrix(1.00, 0.00, -0.00, -1.00, 200.5, 363.0)">i</text><text xml:space="preserve" font-family="VarelaRound" font-size="24.0" fill="#52575F" transform="matrix(1.00, 0.00, -0.00, -1.00, 206.6, 363.0)">n</text><text xml:space="preserve" font-family="VarelaRound" font-size="24.0" fill="#52575F" transform="matrix(1.00, 0.00, -0.00, -1.00, 221.2, 363.0)">p</text><text xml:space="preserve" font-family="VarelaRound" font-size="24.0" fill="#52575F" transform="matrix(1.00, 0.00, -0.00, -1.00, 236.4, 363.0)">u</text><text xml:space="preserve" font-family="VarelaRound" font-size="24.0" fill="#52575F" transform="matrix(1.00, 0.00, -0.00, -1.00, 251.0, 363.0)">t</text><text xml:space="preserve" font-family="VarelaRound" font-size="24.0" fill="#52575F" transform="matrix(1.00, 0.00, -0.00, -1.00, 260.2, 363.0)">?</text><text xml:space="preserve" font-family="VarelaRound" font-size="24.0" fill="#52575F" transform="matrix(1.00, 0.00, -0.00, -1.00, 272.2, 363.0)"> </text><text xml:space="preserve" font-family="VarelaRound" font-size="24.0" fill="#52575F" transform="matrix(1.00, 0.00, -0.00, -1.00, 278.4, 363.0)">F</text><text xml:space="preserve" font-family="VarelaRound" font-size="24.0" fill="#52575F" transform="matrix(1.00, 0.00, -0.00, -1.00, 292.8, 363.0)">i</text><text xml:space="preserve" font-family="VarelaRound" font-size="24.0" fill="#52575F" transform="matrix(1.00, 0.00, -0.00, -1.00, 299.0, 363.0)">x</text><text xml:space="preserve" font-family="VarelaRound" font-size="24.0" fill="#52575F" transform="matrix(1.00, 0.00, -0.00, -1.00, 311.6, 363.0)">e</text><text xml:space="preserve" font-family="VarelaRound" font-size="24.0" fill="#52575F" transform="matrix(1.00, 0.00, -0.00, -1.00, 325.3, 363.0)">d</text><text xml:space="preserve" font-family="VarelaRound" font-size="24.0" fill="#52575F" transform="matrix(1.00, 0.00, -0.00, -1.00, 340.4, 363.0)">.</text></g></g><g><clipPath id="clip-488"><path d="M 0.3 0.8 L 410.6 0.8 L 410.6 316.6 L 0.3 316.6 Z M 0.3 0.8 "></path></clipPath><g clip-path="url(#clip-488)"><image xlink:href="../../8EC6B43A-C927-405C-8888-1D63FA193459/assets/5C3F29C331773CB50C3BD3438F71AE4C.png" width="411.00" height="316.00" transform="matrix(1.00, 0.00, -0.00, -1.00, 0.0, 317.0)"></image></g></g></g></svg>