<?xml version="1.0" encoding="UTF-8" standalone="no"?><svg xmlns="http://www.w3.org/2000/svg" xmlns:xlink="http://www.w3.org/1999/xlink" clip-rule="evenodd" stroke-miterlimit="4.00" viewBox="0 0 412 56"><desc>SVG generated by Keynote</desc><defs></defs><g transform="matrix(1.00, 0.00, -0.00, -1.00, 0.0, 56.0)"><text xml:space="preserve" font-family="VarelaRound" font-size="24.0" fill="#52575F" transform="matrix(1.00, 0.00, -0.00, -1.00, 1.0, 37.0)">S</text><text xml:space="preserve" font-family="VarelaRound" font-size="24.0" fill="#52575F" transform="matrix(1.00, 0.00, -0.00, -1.00, 15.8, 37.0)">e</text><text xml:space="preserve" font-family="VarelaRound" font-size="24.0" fill="#52575F" transform="matrix(1.00, 0.00, -0.00, -1.00, 29.5, 37.0)">e</text><text xml:space="preserve" font-family="VarelaRound" font-size="24.0" fill="#52575F" transform="matrix(1.00, 0.00, -0.00, -1.00, 43.1, 37.0)"> </text><text xml:space="preserve" font-family="VarelaRound" font-size="24.0" fill="#52575F" transform="matrix(1.00, 0.00, -0.00, -1.00, 49.4, 37.0)">k</text><text xml:space="preserve" font-family="VarelaRound" font-size="24.0" fill="#52575F" transform="matrix(1.00, 0.00, -0.00, -1.00, 62.5, 37.0)">e</text><text xml:space="preserve" font-family="VarelaRound" font-size="24.0" fill="#52575F" transform="matrix(1.00, 0.00, -0.00, -1.00, 76.2, 37.0)">y</text><text xml:space="preserve" font-family="VarelaRound" font-size="24.0" fill="#52575F" transform="matrix(1.00, 0.00, -0.00, -1.00, 89.0, 37.0)"> </text><text xml:space="preserve" font-family="VarelaRound" font-size="24.0" fill="#52575F" transform="matrix(1.00, 0.00, -0.00, -1.00, 95.2, 37.0)">w</text><text xml:space="preserve" font-family="VarelaRound" font-size="24.0" fill="#52575F" transform="matrix(1.00, 0.00, -0.00, -1.00, 114.0, 37.0)">o</text><text xml:space="preserve" font-family="VarelaRound" font-size="24.0" fill="#52575F" transform="matrix(1.00, 0.00, -0.00, -1.00, 128.6, 37.0)">r</text><text xml:space="preserve" font-family="VarelaRound" font-size="24.0" fill="#52575F" transform="matrix(1.00, 0.00, -0.00, -1.00, 137.9, 37.0)">k</text><text xml:space="preserve" font-family="VarelaRound" font-size="24.0" fill="#52575F" transform="matrix(1.00, 0.00, -0.00, -1.00, 151.0, 37.0)">f</text><text xml:space="preserve" font-family="VarelaRound" font-size="24.0" fill="#52575F" transform="matrix(1.00, 0.00, -0.00, -1.00, 159.9, 37.0)">o</text><text xml:space="preserve" font-family="VarelaRound" font-size="24.0" fill="#52575F" transform="matrix(1.00, 0.00, -0.00, -1.00, 174.5, 37.0)">r</text><text xml:space="preserve" font-family="VarelaRound" font-size="24.0" fill="#52575F" transform="matrix(1.00, 0.00, -0.00, -1.00, 183.8, 37.0)">c</text><text xml:space="preserve" font-family="VarelaRound" font-size="24.0" fill="#52575F" transform="matrix(1.00, 0.00, -0.00, -1.00, 196.6, 37.0)">e</text><text xml:space="preserve" font-family="VarelaRound" font-size="24.0" fill="#52575F" transform="matrix(1.00, 0.00, -0.00, -1.00, 210.3, 37.0)"> </text><text xml:space="preserve" font-family="VarelaRound" font-size="24.0" fill="#52575F" transform="matrix(1.00, 0.00, -0.00, -1.00, 216.5, 37.0)">m</text><text xml:space="preserve" font-family="VarelaRound" font-size="24.0" fill="#52575F" transform="matrix(1.00, 0.00, -0.00, -1.00, 238.6, 37.0)">e</text><text xml:space="preserve" font-family="VarelaRound" font-size="24.0" fill="#52575F" transform="matrix(1.00, 0.00, -0.00, -1.00, 252.2, 37.0)">t</text><text xml:space="preserve" font-family="VarelaRound" font-size="24.0" fill="#52575F" transform="matrix(1.00, 0.00, -0.00, -1.00, 261.4, 37.0)">r</text><text xml:space="preserve" font-family="VarelaRound" font-size="24.0" fill="#52575F" transform="matrix(1.00, 0.00, -0.00, -1.00, 270.7, 37.0)">i</text><text xml:space="preserve" font-family="VarelaRound" font-size="24.0" fill="#52575F" transform="matrix(1.00, 0.00, -0.00, -1.00, 276.9, 37.0)">c</text><text xml:space="preserve" font-family="VarelaRound" font-size="24.0" fill="#52575F" transform="matrix(1.00, 0.00, -0.00, -1.00, 289.8, 37.0)">s</text><text xml:space="preserve" font-family="VarelaRound" font-size="24.0" fill="#52575F" transform="matrix(1.00, 0.00, -0.00, -1.00, 301.3, 37.0)">,</text><text xml:space="preserve" font-family="VarelaRound" font-size="24.0" fill="#52575F" transform="matrix(1.00, 0.00, -0.00, -1.00, 307.5, 37.0)"> </text><text xml:space="preserve" font-family="VarelaRound" font-size="24.0" fill="#52575F" transform="matrix(1.00, 0.00, -0.00, -1.00, 313.8, 37.0)">u</text><text xml:space="preserve" font-family="VarelaRound" font-size="24.0" fill="#52575F" transform="matrix(1.00, 0.00, -0.00, -1.00, 328.4, 37.0)">p</text><text xml:space="preserve" font-family="VarelaRound" font-size="24.0" fill="#52575F" transform="matrix(1.00, 0.00, -0.00, -1.00, 343.6, 37.0)">d</text><text xml:space="preserve" font-family="VarelaRound" font-size="24.0" fill="#52575F" transform="matrix(1.00, 0.00, -0.00, -1.00, 358.7, 37.0)">a</text><text xml:space="preserve" font-family="VarelaRound" font-size="24.0" fill="#52575F" transform="matrix(1.00, 0.00, -0.00, -1.00, 371.9, 37.0)">t</text><text xml:space="preserve" font-family="VarelaRound" font-size="24.0" fill="#52575F" transform="matrix(1.00, 0.00, -0.00, -1.00, 381.1, 37.0)">e</text><text xml:space="preserve" font-family="VarelaRound" font-size="24.0" fill="#52575F" transform="matrix(1.00, 0.00, -0.00, -1.00, 394.8, 37.0)">d</text><text xml:space="preserve" font-family="VarelaRound" font-size="24.0" fill="#52575F" transform="matrix(1.00, 0.00, -0.00, -1.00, 409.9, 37.0)"> </text><text xml:space="preserve" font-family="VarelaRound" font-size="24.0" fill="#52575F" transform="matrix(1.00, 0.00, -0.00, -1.00, 129.0, 8.0)">a</text><text xml:space="preserve" font-family="VarelaRound" font-size="24.0" fill="#52575F" transform="matrix(1.00, 0.00, -0.00, -1.00, 142.2, 8.0)">u</text><text xml:space="preserve" font-family="VarelaRound" font-size="24.0" fill="#52575F" transform="matrix(1.00, 0.00, -0.00, -1.00, 156.9, 8.0)">t</text><text xml:space="preserve" font-family="VarelaRound" font-size="24.0" fill="#52575F" transform="matrix(1.00, 0.00, -0.00, -1.00, 166.1, 8.0)">o</text><text xml:space="preserve" font-family="VarelaRound" font-size="24.0" fill="#52575F" transform="matrix(1.00, 0.00, -0.00, -1.00, 180.7, 8.0)">m</text><text xml:space="preserve" font-family="VarelaRound" font-size="24.0" fill="#52575F" transform="matrix(1.00, 0.00, -0.00, -1.00, 202.7, 8.0)">a</text><text xml:space="preserve" font-family="VarelaRound" font-size="24.0" fill="#52575F" transform="matrix(1.00, 0.00, -0.00, -1.00, 215.9, 8.0)">t</text><text xml:space="preserve" font-family="VarelaRound" font-size="24.0" fill="#52575F" transform="matrix(1.00, 0.00, -0.00, -1.00, 225.1, 8.0)">i</text><text xml:space="preserve" font-family="VarelaRound" font-size="24.0" fill="#52575F" transform="matrix(1.00, 0.00, -0.00, -1.00, 231.3, 8.0)">c</text><text xml:space="preserve" font-family="VarelaRound" font-size="24.0" fill="#52575F" transform="matrix(1.00, 0.00, -0.00, -1.00, 244.2, 8.0)">a</text><text xml:space="preserve" font-family="VarelaRound" font-size="24.0" fill="#52575F" transform="matrix(1.00, 0.00, -0.00, -1.00, 257.5, 8.0)">l</text><text xml:space="preserve" font-family="VarelaRound" font-size="24.0" fill="#52575F" transform="matrix(1.00, 0.00, -0.00, -1.00, 263.9, 8.0)">l</text><text xml:space="preserve" font-family="VarelaRound" font-size="24.0" fill="#52575F" transform="matrix(1.00, 0.00, -0.00, -1.00, 270.2, 8.0)">y</text></g></svg>