<?xml version="1.0" encoding="UTF-8" standalone="no"?><svg xmlns="http://www.w3.org/2000/svg" xmlns:xlink="http://www.w3.org/1999/xlink" clip-rule="evenodd" stroke-miterlimit="4.00" viewBox="0 0 290 21"><desc>SVG generated by Keynote</desc><defs></defs><g transform="matrix(1.00, 0.00, -0.00, -1.00, 0.0, 21.0)"><text xml:space="preserve" font-family="VarelaRound" font-size="24.0" fill="#FEFFFF" transform="matrix(1.00, 0.00, -0.00, -1.00, 0.0, 3.0)">I</text><text xml:space="preserve" font-family="VarelaRound" font-size="24.0" fill="#FEFFFF" transform="matrix(1.00, 0.00, -0.00, -1.00, 6.6, 3.0)">n</text><text xml:space="preserve" font-family="VarelaRound" font-size="24.0" fill="#FEFFFF" transform="matrix(1.00, 0.00, -0.00, -1.00, 21.2, 3.0)">s</text><text xml:space="preserve" font-family="VarelaRound" font-size="24.0" fill="#FEFFFF" transform="matrix(1.00, 0.00, -0.00, -1.00, 32.6, 3.0)">t</text><text xml:space="preserve" font-family="VarelaRound" font-size="24.0" fill="#FEFFFF" transform="matrix(1.00, 0.00, -0.00, -1.00, 41.9, 3.0)">a</text><text xml:space="preserve" font-family="VarelaRound" font-size="24.0" fill="#FEFFFF" transform="matrix(1.00, 0.00, -0.00, -1.00, 55.2, 3.0)">n</text><text xml:space="preserve" font-family="VarelaRound" font-size="24.0" fill="#FEFFFF" transform="matrix(1.00, 0.00, -0.00, -1.00, 69.7, 3.0)">t</text><text xml:space="preserve" font-family="VarelaRound" font-size="24.0" fill="#FEFFFF" transform="matrix(1.00, 0.00, -0.00, -1.00, 78.9, 3.0)"> </text><text xml:space="preserve" font-family="VarelaRound" font-size="24.0" fill="#FEFFFF" transform="matrix(1.00, 0.00, -0.00, -1.00, 85.2, 3.0)">a</text><text xml:space="preserve" font-family="VarelaRound" font-size="24.0" fill="#FEFFFF" transform="matrix(1.00, 0.00, -0.00, -1.00, 98.5, 3.0)">c</text><text xml:space="preserve" font-family="VarelaRound" font-size="24.0" fill="#FEFFFF" transform="matrix(1.00, 0.00, -0.00, -1.00, 111.2, 3.0)">c</text><text xml:space="preserve" font-family="VarelaRound" font-size="24.0" fill="#FEFFFF" transform="matrix(1.00, 0.00, -0.00, -1.00, 124.0, 3.0)">e</text><text xml:space="preserve" font-family="VarelaRound" font-size="24.0" fill="#FEFFFF" transform="matrix(1.00, 0.00, -0.00, -1.00, 137.7, 3.0)">s</text><text xml:space="preserve" font-family="VarelaRound" font-size="24.0" fill="#FEFFFF" transform="matrix(1.00, 0.00, -0.00, -1.00, 149.2, 3.0)">s</text><text xml:space="preserve" font-family="VarelaRound" font-size="24.0" fill="#FEFFFF" transform="matrix(1.00, 0.00, -0.00, -1.00, 160.7, 3.0)"> </text><text xml:space="preserve" font-family="VarelaRound" font-size="24.0" fill="#FEFFFF" transform="matrix(1.00, 0.00, -0.00, -1.00, 167.0, 3.0)">t</text><text xml:space="preserve" font-family="VarelaRound" font-size="24.0" fill="#FEFFFF" transform="matrix(1.00, 0.00, -0.00, -1.00, 176.2, 3.0)">o</text><text xml:space="preserve" font-family="VarelaRound" font-size="24.0" fill="#FEFFFF" transform="matrix(1.00, 0.00, -0.00, -1.00, 190.8, 3.0)"> </text><text xml:space="preserve" font-family="VarelaRound" font-size="24.0" fill="#FEFFFF" transform="matrix(1.00, 0.00, -0.00, -1.00, 197.0, 3.0)">a</text><text xml:space="preserve" font-family="VarelaRound" font-size="24.0" fill="#FEFFFF" transform="matrix(1.00, 0.00, -0.00, -1.00, 210.3, 3.0)">n</text><text xml:space="preserve" font-family="VarelaRound" font-size="24.0" fill="#FEFFFF" transform="matrix(1.00, 0.00, -0.00, -1.00, 225.0, 3.0)">s</text><text xml:space="preserve" font-family="VarelaRound" font-size="24.0" fill="#FEFFFF" transform="matrix(1.00, 0.00, -0.00, -1.00, 236.5, 3.0)">w</text><text xml:space="preserve" font-family="VarelaRound" font-size="24.0" fill="#FEFFFF" transform="matrix(1.00, 0.00, -0.00, -1.00, 255.3, 3.0)">e</text><text xml:space="preserve" font-family="VarelaRound" font-size="24.0" fill="#FEFFFF" transform="matrix(1.00, 0.00, -0.00, -1.00, 269.0, 3.0)">r</text><text xml:space="preserve" font-family="VarelaRound" font-size="24.0" fill="#FEFFFF" transform="matrix(1.00, 0.00, -0.00, -1.00, 278.3, 3.0)">s</text></g></svg>