<?xml version="1.0" encoding="UTF-8" standalone="no"?><svg xmlns="http://www.w3.org/2000/svg" xmlns:xlink="http://www.w3.org/1999/xlink" clip-rule="evenodd" stroke-miterlimit="4.00" viewBox="0 0 335 317"><desc>SVG generated by Keynote</desc><defs></defs><g transform="matrix(1.00, 0.00, -0.00, -1.00, 0.0, 317.0)"><text xml:space="preserve" font-family="VarelaRound" font-size="24.0" fill="#FEFFFF" transform="matrix(1.00, 0.00, -0.00, -1.00, 2.0, 298.0)">H</text><text xml:space="preserve" font-family="VarelaRound" font-size="24.0" fill="#FEFFFF" transform="matrix(1.00, 0.00, -0.00, -1.00, 20.1, 298.0)">R</text><text xml:space="preserve" font-family="VarelaRound" font-size="24.0" fill="#FEFFFF" transform="matrix(1.00, 0.00, -0.00, -1.00, 37.2, 298.0)"> </text><text xml:space="preserve" font-family="VarelaRound" font-size="24.0" fill="#FEFFFF" transform="matrix(1.00, 0.00, -0.00, -1.00, 43.4, 298.0)">D</text><text xml:space="preserve" font-family="VarelaRound" font-size="24.0" fill="#FEFFFF" transform="matrix(1.00, 0.00, -0.00, -1.00, 61.2, 298.0)">a</text><text xml:space="preserve" font-family="VarelaRound" font-size="24.0" fill="#FEFFFF" transform="matrix(1.00, 0.00, -0.00, -1.00, 74.5, 298.0)">s</text><text xml:space="preserve" font-family="VarelaRound" font-size="24.0" fill="#FEFFFF" transform="matrix(1.00, 0.00, -0.00, -1.00, 86.0, 298.0)">h</text><text xml:space="preserve" font-family="VarelaRound" font-size="24.0" fill="#FEFFFF" transform="matrix(1.00, 0.00, -0.00, -1.00, 100.7, 298.0)">b</text><text xml:space="preserve" font-family="VarelaRound" font-size="24.0" fill="#FEFFFF" transform="matrix(1.00, 0.00, -0.00, -1.00, 115.8, 298.0)">o</text><text xml:space="preserve" font-family="VarelaRound" font-size="24.0" fill="#FEFFFF" transform="matrix(1.00, 0.00, -0.00, -1.00, 130.4, 298.0)">a</text><text xml:space="preserve" font-family="VarelaRound" font-size="24.0" fill="#FEFFFF" transform="matrix(1.00, 0.00, -0.00, -1.00, 143.7, 298.0)">r</text><text xml:space="preserve" font-family="VarelaRound" font-size="24.0" fill="#FEFFFF" transform="matrix(1.00, 0.00, -0.00, -1.00, 153.0, 298.0)">d</text><text xml:space="preserve" font-family="VarelaRound" font-size="24.0" fill="#FEFFFF" transform="matrix(1.00, 0.00, -0.00, -1.00, 168.2, 298.0)">,</text><text xml:space="preserve" font-family="VarelaRound" font-size="24.0" fill="#FEFFFF" transform="matrix(1.00, 0.00, -0.00, -1.00, 174.4, 298.0)"> </text><text xml:space="preserve" font-family="VarelaRound" font-size="24.0" fill="#FEFFFF" transform="matrix(1.00, 0.00, -0.00, -1.00, 180.6, 298.0)">n</text><text xml:space="preserve" font-family="VarelaRound" font-size="24.0" fill="#FEFFFF" transform="matrix(1.00, 0.00, -0.00, -1.00, 195.2, 298.0)">o</text><text xml:space="preserve" font-family="VarelaRound" font-size="24.0" fill="#FEFFFF" transform="matrix(1.00, 0.00, -0.00, -1.00, 209.8, 298.0)"> </text><text xml:space="preserve" font-family="VarelaRound" font-size="24.0" fill="#FEFFFF" transform="matrix(1.00, 0.00, -0.00, -1.00, 216.1, 298.0)">s</text><text xml:space="preserve" font-family="VarelaRound" font-size="24.0" fill="#FEFFFF" transform="matrix(1.00, 0.00, -0.00, -1.00, 227.6, 298.0)">e</text><text xml:space="preserve" font-family="VarelaRound" font-size="24.0" fill="#FEFFFF" transform="matrix(1.00, 0.00, -0.00, -1.00, 241.3, 298.0)">t</text><text xml:space="preserve" font-family="VarelaRound" font-size="24.0" fill="#FEFFFF" transform="matrix(1.00, 0.00, -0.00, -1.00, 250.5, 298.0)">-</text><text xml:space="preserve" font-family="VarelaRound" font-size="24.0" fill="#FEFFFF" transform="matrix(1.00, 0.00, -0.00, -1.00, 260.3, 298.0)">u</text><text xml:space="preserve" font-family="VarelaRound" font-size="24.0" fill="#FEFFFF" transform="matrix(1.00, 0.00, -0.00, -1.00, 274.9, 298.0)">p</text><text xml:space="preserve" font-family="VarelaRound" font-size="24.0" fill="#FEFFFF" transform="matrix(1.00, 0.00, -0.00, -1.00, 290.1, 298.0)"> </text><text xml:space="preserve" font-family="VarelaRound" font-size="24.0" fill="#FEFFFF" transform="matrix(1.00, 0.00, -0.00, -1.00, 2.0, 240.0)">I</text><text xml:space="preserve" font-family="VarelaRound" font-size="24.0" fill="#FEFFFF" transform="matrix(1.00, 0.00, -0.00, -1.00, 8.6, 240.0)">n</text><text xml:space="preserve" font-family="VarelaRound" font-size="24.0" fill="#FEFFFF" transform="matrix(1.00, 0.00, -0.00, -1.00, 23.2, 240.0)">s</text><text xml:space="preserve" font-family="VarelaRound" font-size="24.0" fill="#FEFFFF" transform="matrix(1.00, 0.00, -0.00, -1.00, 34.6, 240.0)">t</text><text xml:space="preserve" font-family="VarelaRound" font-size="24.0" fill="#FEFFFF" transform="matrix(1.00, 0.00, -0.00, -1.00, 43.9, 240.0)">a</text><text xml:space="preserve" font-family="VarelaRound" font-size="24.0" fill="#FEFFFF" transform="matrix(1.00, 0.00, -0.00, -1.00, 57.2, 240.0)">n</text><text xml:space="preserve" font-family="VarelaRound" font-size="24.0" fill="#FEFFFF" transform="matrix(1.00, 0.00, -0.00, -1.00, 71.7, 240.0)">t</text><text xml:space="preserve" font-family="VarelaRound" font-size="24.0" fill="#FEFFFF" transform="matrix(1.00, 0.00, -0.00, -1.00, 80.9, 240.0)"> </text><text xml:space="preserve" font-family="VarelaRound" font-size="24.0" fill="#FEFFFF" transform="matrix(1.00, 0.00, -0.00, -1.00, 87.2, 240.0)">a</text><text xml:space="preserve" font-family="VarelaRound" font-size="24.0" fill="#FEFFFF" transform="matrix(1.00, 0.00, -0.00, -1.00, 100.5, 240.0)">c</text><text xml:space="preserve" font-family="VarelaRound" font-size="24.0" fill="#FEFFFF" transform="matrix(1.00, 0.00, -0.00, -1.00, 113.2, 240.0)">c</text><text xml:space="preserve" font-family="VarelaRound" font-size="24.0" fill="#FEFFFF" transform="matrix(1.00, 0.00, -0.00, -1.00, 126.0, 240.0)">e</text><text xml:space="preserve" font-family="VarelaRound" font-size="24.0" fill="#FEFFFF" transform="matrix(1.00, 0.00, -0.00, -1.00, 139.7, 240.0)">s</text><text xml:space="preserve" font-family="VarelaRound" font-size="24.0" fill="#FEFFFF" transform="matrix(1.00, 0.00, -0.00, -1.00, 151.2, 240.0)">s</text><text xml:space="preserve" font-family="VarelaRound" font-size="24.0" fill="#FEFFFF" transform="matrix(1.00, 0.00, -0.00, -1.00, 162.7, 240.0)"> </text><text xml:space="preserve" font-family="VarelaRound" font-size="24.0" fill="#FEFFFF" transform="matrix(1.00, 0.00, -0.00, -1.00, 169.0, 240.0)">t</text><text xml:space="preserve" font-family="VarelaRound" font-size="24.0" fill="#FEFFFF" transform="matrix(1.00, 0.00, -0.00, -1.00, 178.2, 240.0)">o</text><text xml:space="preserve" font-family="VarelaRound" font-size="24.0" fill="#FEFFFF" transform="matrix(1.00, 0.00, -0.00, -1.00, 192.8, 240.0)"> </text><text xml:space="preserve" font-family="VarelaRound" font-size="24.0" fill="#FEFFFF" transform="matrix(1.00, 0.00, -0.00, -1.00, 199.0, 240.0)">a</text><text xml:space="preserve" font-family="VarelaRound" font-size="24.0" fill="#FEFFFF" transform="matrix(1.00, 0.00, -0.00, -1.00, 212.3, 240.0)">n</text><text xml:space="preserve" font-family="VarelaRound" font-size="24.0" fill="#FEFFFF" transform="matrix(1.00, 0.00, -0.00, -1.00, 227.0, 240.0)">s</text><text xml:space="preserve" font-family="VarelaRound" font-size="24.0" fill="#FEFFFF" transform="matrix(1.00, 0.00, -0.00, -1.00, 238.5, 240.0)">w</text><text xml:space="preserve" font-family="VarelaRound" font-size="24.0" fill="#FEFFFF" transform="matrix(1.00, 0.00, -0.00, -1.00, 257.3, 240.0)">e</text><text xml:space="preserve" font-family="VarelaRound" font-size="24.0" fill="#FEFFFF" transform="matrix(1.00, 0.00, -0.00, -1.00, 271.0, 240.0)">r</text><text xml:space="preserve" font-family="VarelaRound" font-size="24.0" fill="#FEFFFF" transform="matrix(1.00, 0.00, -0.00, -1.00, 280.3, 240.0)">s</text><text xml:space="preserve" font-family="VarelaRound" font-size="24.0" fill="#FEFFFF" transform="matrix(1.00, 0.00, -0.00, -1.00, 291.8, 240.0)"> </text><text xml:space="preserve" font-family="VarelaRound" font-size="24.0" fill="#FEFFFF" transform="matrix(1.00, 0.00, -0.00, -1.00, 2.0, 182.0)">I</text><text xml:space="preserve" font-family="VarelaRound" font-size="24.0" fill="#FEFFFF" transform="matrix(1.00, 0.00, -0.00, -1.00, 8.6, 182.0)">n</text><text xml:space="preserve" font-family="VarelaRound" font-size="24.0" fill="#FEFFFF" transform="matrix(1.00, 0.00, -0.00, -1.00, 23.2, 182.0)">d</text><text xml:space="preserve" font-family="VarelaRound" font-size="24.0" fill="#FEFFFF" transform="matrix(1.00, 0.00, -0.00, -1.00, 38.4, 182.0)">u</text><text xml:space="preserve" font-family="VarelaRound" font-size="24.0" fill="#FEFFFF" transform="matrix(1.00, 0.00, -0.00, -1.00, 53.0, 182.0)">s</text><text xml:space="preserve" font-family="VarelaRound" font-size="24.0" fill="#FEFFFF" transform="matrix(1.00, 0.00, -0.00, -1.00, 64.4, 182.0)">t</text><text xml:space="preserve" font-family="VarelaRound" font-size="24.0" fill="#FEFFFF" transform="matrix(1.00, 0.00, -0.00, -1.00, 73.6, 182.0)">r</text><text xml:space="preserve" font-family="VarelaRound" font-size="24.0" fill="#FEFFFF" transform="matrix(1.00, 0.00, -0.00, -1.00, 82.9, 182.0)">y</text><text xml:space="preserve" font-family="VarelaRound" font-size="24.0" fill="#FEFFFF" transform="matrix(1.00, 0.00, -0.00, -1.00, 95.7, 182.0)"> </text><text xml:space="preserve" font-family="VarelaRound" font-size="24.0" fill="#FEFFFF" transform="matrix(1.00, 0.00, -0.00, -1.00, 102.0, 182.0)">B</text><text xml:space="preserve" font-family="VarelaRound" font-size="24.0" fill="#FEFFFF" transform="matrix(1.00, 0.00, -0.00, -1.00, 118.5, 182.0)">e</text><text xml:space="preserve" font-family="VarelaRound" font-size="24.0" fill="#FEFFFF" transform="matrix(1.00, 0.00, -0.00, -1.00, 132.2, 182.0)">n</text><text xml:space="preserve" font-family="VarelaRound" font-size="24.0" fill="#FEFFFF" transform="matrix(1.00, 0.00, -0.00, -1.00, 146.8, 182.0)">c</text><text xml:space="preserve" font-family="VarelaRound" font-size="24.0" fill="#FEFFFF" transform="matrix(1.00, 0.00, -0.00, -1.00, 159.6, 182.0)">h</text><text xml:space="preserve" font-family="VarelaRound" font-size="24.0" fill="#FEFFFF" transform="matrix(1.00, 0.00, -0.00, -1.00, 174.2, 182.0)">m</text><text xml:space="preserve" font-family="VarelaRound" font-size="24.0" fill="#FEFFFF" transform="matrix(1.00, 0.00, -0.00, -1.00, 196.3, 182.0)">a</text><text xml:space="preserve" font-family="VarelaRound" font-size="24.0" fill="#FEFFFF" transform="matrix(1.00, 0.00, -0.00, -1.00, 209.6, 182.0)">r</text><text xml:space="preserve" font-family="VarelaRound" font-size="24.0" fill="#FEFFFF" transform="matrix(1.00, 0.00, -0.00, -1.00, 218.9, 182.0)">k</text><text xml:space="preserve" font-family="VarelaRound" font-size="24.0" fill="#FEFFFF" transform="matrix(1.00, 0.00, -0.00, -1.00, 232.0, 182.0)">s</text><text xml:space="preserve" font-family="VarelaRound" font-size="24.0" fill="#FEFFFF" transform="matrix(1.00, 0.00, -0.00, -1.00, 243.5, 182.0)"> </text><text xml:space="preserve" font-family="VarelaRound" font-size="24.0" fill="#FEFFFF" transform="matrix(1.00, 0.00, -0.00, -1.00, 2.0, 124.0)">J</text><text xml:space="preserve" font-family="VarelaRound" font-size="24.0" fill="#FEFFFF" transform="matrix(1.00, 0.00, -0.00, -1.00, 13.2, 124.0)">o</text><text xml:space="preserve" font-family="VarelaRound" font-size="24.0" fill="#FEFFFF" transform="matrix(1.00, 0.00, -0.00, -1.00, 27.8, 124.0)">b</text><text xml:space="preserve" font-family="VarelaRound" font-size="24.0" fill="#FEFFFF" transform="matrix(1.00, 0.00, -0.00, -1.00, 42.9, 124.0)"> </text><text xml:space="preserve" font-family="VarelaRound" font-size="24.0" fill="#FEFFFF" transform="matrix(1.00, 0.00, -0.00, -1.00, 49.2, 124.0)">C</text><text xml:space="preserve" font-family="VarelaRound" font-size="24.0" fill="#FEFFFF" transform="matrix(1.00, 0.00, -0.00, -1.00, 65.9, 124.0)">a</text><text xml:space="preserve" font-family="VarelaRound" font-size="24.0" fill="#FEFFFF" transform="matrix(1.00, 0.00, -0.00, -1.00, 79.1, 124.0)">t</text><text xml:space="preserve" font-family="VarelaRound" font-size="24.0" fill="#FEFFFF" transform="matrix(1.00, 0.00, -0.00, -1.00, 88.3, 124.0)">e</text><text xml:space="preserve" font-family="VarelaRound" font-size="24.0" fill="#FEFFFF" transform="matrix(1.00, 0.00, -0.00, -1.00, 102.0, 124.0)">g</text><text xml:space="preserve" font-family="VarelaRound" font-size="24.0" fill="#FEFFFF" transform="matrix(1.00, 0.00, -0.00, -1.00, 117.2, 124.0)">o</text><text xml:space="preserve" font-family="VarelaRound" font-size="24.0" fill="#FEFFFF" transform="matrix(1.00, 0.00, -0.00, -1.00, 131.7, 124.0)">r</text><text xml:space="preserve" font-family="VarelaRound" font-size="24.0" fill="#FEFFFF" transform="matrix(1.00, 0.00, -0.00, -1.00, 141.0, 124.0)">i</text><text xml:space="preserve" font-family="VarelaRound" font-size="24.0" fill="#FEFFFF" transform="matrix(1.00, 0.00, -0.00, -1.00, 147.2, 124.0)">z</text><text xml:space="preserve" font-family="VarelaRound" font-size="24.0" fill="#FEFFFF" transform="matrix(1.00, 0.00, -0.00, -1.00, 159.2, 124.0)">a</text><text xml:space="preserve" font-family="VarelaRound" font-size="24.0" fill="#FEFFFF" transform="matrix(1.00, 0.00, -0.00, -1.00, 172.4, 124.0)">t</text><text xml:space="preserve" font-family="VarelaRound" font-size="24.0" fill="#FEFFFF" transform="matrix(1.00, 0.00, -0.00, -1.00, 181.6, 124.0)">i</text><text xml:space="preserve" font-family="VarelaRound" font-size="24.0" fill="#FEFFFF" transform="matrix(1.00, 0.00, -0.00, -1.00, 187.8, 124.0)">o</text><text xml:space="preserve" font-family="VarelaRound" font-size="24.0" fill="#FEFFFF" transform="matrix(1.00, 0.00, -0.00, -1.00, 202.4, 124.0)">n</text><text xml:space="preserve" font-family="VarelaRound" font-size="24.0" fill="#FEFFFF" transform="matrix(1.00, 0.00, -0.00, -1.00, 217.0, 124.0)"> </text><text xml:space="preserve" font-family="VarelaRound" font-size="24.0" fill="#FEFFFF" transform="matrix(1.00, 0.00, -0.00, -1.00, 223.2, 124.0)">a</text><text xml:space="preserve" font-family="VarelaRound" font-size="24.0" fill="#FEFFFF" transform="matrix(1.00, 0.00, -0.00, -1.00, 236.5, 124.0)">l</text><text xml:space="preserve" font-family="VarelaRound" font-size="24.0" fill="#FEFFFF" transform="matrix(1.00, 0.00, -0.00, -1.00, 242.9, 124.0)">g</text><text xml:space="preserve" font-family="VarelaRound" font-size="24.0" fill="#FEFFFF" transform="matrix(1.00, 0.00, -0.00, -1.00, 258.0, 124.0)">o</text><text xml:space="preserve" font-family="VarelaRound" font-size="24.0" fill="#FEFFFF" transform="matrix(1.00, 0.00, -0.00, -1.00, 272.6, 124.0)">r</text><text xml:space="preserve" font-family="VarelaRound" font-size="24.0" fill="#FEFFFF" transform="matrix(1.00, 0.00, -0.00, -1.00, 281.9, 124.0)">i</text><text xml:space="preserve" font-family="VarelaRound" font-size="24.0" fill="#FEFFFF" transform="matrix(1.00, 0.00, -0.00, -1.00, 288.1, 124.0)">t</text><text xml:space="preserve" font-family="VarelaRound" font-size="24.0" fill="#FEFFFF" transform="matrix(1.00, 0.00, -0.00, -1.00, 297.3, 124.0)">h</text><text xml:space="preserve" font-family="VarelaRound" font-size="24.0" fill="#FEFFFF" transform="matrix(1.00, 0.00, -0.00, -1.00, 311.9, 124.0)">m</text><text xml:space="preserve" font-family="VarelaRound" font-size="24.0" fill="#FEFFFF" transform="matrix(1.00, 0.00, -0.00, -1.00, 334.0, 124.0)"> </text><text xml:space="preserve" font-family="VarelaRound" font-size="24.0" fill="#FEFFFF" transform="matrix(1.00, 0.00, -0.00, -1.00, 2.0, 66.0)">N</text><text xml:space="preserve" font-family="VarelaRound" font-size="24.0" fill="#FEFFFF" transform="matrix(1.00, 0.00, -0.00, -1.00, 21.0, 66.0)">a</text><text xml:space="preserve" font-family="VarelaRound" font-size="24.0" fill="#FEFFFF" transform="matrix(1.00, 0.00, -0.00, -1.00, 34.2, 66.0)">t</text><text xml:space="preserve" font-family="VarelaRound" font-size="24.0" fill="#FEFFFF" transform="matrix(1.00, 0.00, -0.00, -1.00, 43.4, 66.0)">u</text><text xml:space="preserve" font-family="VarelaRound" font-size="24.0" fill="#FEFFFF" transform="matrix(1.00, 0.00, -0.00, -1.00, 58.1, 66.0)">r</text><text xml:space="preserve" font-family="VarelaRound" font-size="24.0" fill="#FEFFFF" transform="matrix(1.00, 0.00, -0.00, -1.00, 67.4, 66.0)">a</text><text xml:space="preserve" font-family="VarelaRound" font-size="24.0" fill="#FEFFFF" transform="matrix(1.00, 0.00, -0.00, -1.00, 80.7, 66.0)">l</text><text xml:space="preserve" font-family="VarelaRound" font-size="24.0" fill="#FEFFFF" transform="matrix(1.00, 0.00, -0.00, -1.00, 87.0, 66.0)"> </text><text xml:space="preserve" font-family="VarelaRound" font-size="24.0" fill="#FEFFFF" transform="matrix(1.00, 0.00, -0.00, -1.00, 93.3, 66.0)">e</text><text xml:space="preserve" font-family="VarelaRound" font-size="24.0" fill="#FEFFFF" transform="matrix(1.00, 0.00, -0.00, -1.00, 106.8, 66.0)">x</text><text xml:space="preserve" font-family="VarelaRound" font-size="24.0" fill="#FEFFFF" transform="matrix(1.00, 0.00, -0.00, -1.00, 119.8, 66.0)">p</text><text xml:space="preserve" font-family="VarelaRound" font-size="24.0" fill="#FEFFFF" transform="matrix(1.00, 0.00, -0.00, -1.00, 135.0, 66.0)">l</text><text xml:space="preserve" font-family="VarelaRound" font-size="24.0" fill="#FEFFFF" transform="matrix(1.00, 0.00, -0.00, -1.00, 141.3, 66.0)">o</text><text xml:space="preserve" font-family="VarelaRound" font-size="24.0" fill="#FEFFFF" transform="matrix(1.00, 0.00, -0.00, -1.00, 155.9, 66.0)">r</text><text xml:space="preserve" font-family="VarelaRound" font-size="24.0" fill="#FEFFFF" transform="matrix(1.00, 0.00, -0.00, -1.00, 165.2, 66.0)">a</text><text xml:space="preserve" font-family="VarelaRound" font-size="24.0" fill="#FEFFFF" transform="matrix(1.00, 0.00, -0.00, -1.00, 178.4, 66.0)">t</text><text xml:space="preserve" font-family="VarelaRound" font-size="24.0" fill="#FEFFFF" transform="matrix(1.00, 0.00, -0.00, -1.00, 187.6, 66.0)">i</text><text xml:space="preserve" font-family="VarelaRound" font-size="24.0" fill="#FEFFFF" transform="matrix(1.00, 0.00, -0.00, -1.00, 193.8, 66.0)">o</text><text xml:space="preserve" font-family="VarelaRound" font-size="24.0" fill="#FEFFFF" transform="matrix(1.00, 0.00, -0.00, -1.00, 208.4, 66.0)">n</text><text xml:space="preserve" font-family="VarelaRound" font-size="24.0" fill="#FEFFFF" transform="matrix(1.00, 0.00, -0.00, -1.00, 223.0, 66.0)"> </text><text xml:space="preserve" font-family="VarelaRound" font-size="24.0" fill="#FEFFFF" transform="matrix(1.00, 0.00, -0.00, -1.00, 2.0, 8.0)">E</text><text xml:space="preserve" font-family="VarelaRound" font-size="24.0" fill="#FEFFFF" transform="matrix(1.00, 0.00, -0.00, -1.00, 17.1, 8.0)">a</text><text xml:space="preserve" font-family="VarelaRound" font-size="24.0" fill="#FEFFFF" transform="matrix(1.00, 0.00, -0.00, -1.00, 30.5, 8.0)">s</text><text xml:space="preserve" font-family="VarelaRound" font-size="24.0" fill="#FEFFFF" transform="matrix(1.00, 0.00, -0.00, -1.00, 42.0, 8.0)">y</text><text xml:space="preserve" font-family="VarelaRound" font-size="24.0" fill="#FEFFFF" transform="matrix(1.00, 0.00, -0.00, -1.00, 54.8, 8.0)"> </text><text xml:space="preserve" font-family="VarelaRound" font-size="24.0" fill="#FEFFFF" transform="matrix(1.00, 0.00, -0.00, -1.00, 61.0, 8.0)">t</text><text xml:space="preserve" font-family="VarelaRound" font-size="24.0" fill="#FEFFFF" transform="matrix(1.00, 0.00, -0.00, -1.00, 70.2, 8.0)">o</text><text xml:space="preserve" font-family="VarelaRound" font-size="24.0" fill="#FEFFFF" transform="matrix(1.00, 0.00, -0.00, -1.00, 84.8, 8.0)"> </text><text xml:space="preserve" font-family="VarelaRound" font-size="24.0" fill="#FEFFFF" transform="matrix(1.00, 0.00, -0.00, -1.00, 91.1, 8.0)">s</text><text xml:space="preserve" font-family="VarelaRound" font-size="24.0" fill="#FEFFFF" transform="matrix(1.00, 0.00, -0.00, -1.00, 102.6, 8.0)">h</text><text xml:space="preserve" font-family="VarelaRound" font-size="24.0" fill="#FEFFFF" transform="matrix(1.00, 0.00, -0.00, -1.00, 117.2, 8.0)">a</text><text xml:space="preserve" font-family="VarelaRound" font-size="24.0" fill="#FEFFFF" transform="matrix(1.00, 0.00, -0.00, -1.00, 130.5, 8.0)">r</text><text xml:space="preserve" font-family="VarelaRound" font-size="24.0" fill="#FEFFFF" transform="matrix(1.00, 0.00, -0.00, -1.00, 139.8, 8.0)">e</text><text xml:space="preserve" font-family="VarelaRound" font-size="24.0" fill="#FEFFFF" transform="matrix(1.00, 0.00, -0.00, -1.00, 153.5, 8.0)"> </text><text xml:space="preserve" font-family="VarelaRound" font-size="24.0" fill="#FEFFFF" transform="matrix(1.00, 0.00, -0.00, -1.00, 159.7, 8.0)">&amp;</text><text xml:space="preserve" font-family="VarelaRound" font-size="24.0" fill="#FEFFFF" transform="matrix(1.00, 0.00, -0.00, -1.00, 177.3, 8.0)"> </text><text xml:space="preserve" font-family="VarelaRound" font-size="24.0" fill="#FEFFFF" transform="matrix(1.00, 0.00, -0.00, -1.00, 183.5, 8.0)">d</text><text xml:space="preserve" font-family="VarelaRound" font-size="24.0" fill="#FEFFFF" transform="matrix(1.00, 0.00, -0.00, -1.00, 198.7, 8.0)">i</text><text xml:space="preserve" font-family="VarelaRound" font-size="24.0" fill="#FEFFFF" transform="matrix(1.00, 0.00, -0.00, -1.00, 204.8, 8.0)">s</text><text xml:space="preserve" font-family="VarelaRound" font-size="24.0" fill="#FEFFFF" transform="matrix(1.00, 0.00, -0.00, -1.00, 216.4, 8.0)">c</text><text xml:space="preserve" font-family="VarelaRound" font-size="24.0" fill="#FEFFFF" transform="matrix(1.00, 0.00, -0.00, -1.00, 229.2, 8.0)">u</text><text xml:space="preserve" font-family="VarelaRound" font-size="24.0" fill="#FEFFFF" transform="matrix(1.00, 0.00, -0.00, -1.00, 243.9, 8.0)">s</text><text xml:space="preserve" font-family="VarelaRound" font-size="24.0" fill="#FEFFFF" transform="matrix(1.00, 0.00, -0.00, -1.00, 255.4, 8.0)">s</text></g></svg>