<?xml version="1.0" encoding="UTF-8" standalone="no"?><svg xmlns="http://www.w3.org/2000/svg" xmlns:xlink="http://www.w3.org/1999/xlink" clip-rule="evenodd" stroke-miterlimit="4.00" viewBox="0 0 847 42"><desc>SVG generated by Keynote</desc><defs></defs><g transform="matrix(1.00, 0.00, -0.00, -1.00, 0.0, 42.0)"><text xml:space="preserve" font-family="VarelaRound" font-size="50.0" fill="#FEFFFF" transform="matrix(1.00, 0.00, -0.00, -1.00, 2.0, 2.0)">T</text><text xml:space="preserve" font-family="VarelaRound" font-size="50.0" fill="#FEFFFF" transform="matrix(1.00, 0.00, -0.00, -1.00, 32.2, 2.0)">h</text><text xml:space="preserve" font-family="VarelaRound" font-size="50.0" fill="#FEFFFF" transform="matrix(1.00, 0.00, -0.00, -1.00, 62.7, 2.0)">r</text><text xml:space="preserve" font-family="VarelaRound" font-size="50.0" fill="#FEFFFF" transform="matrix(1.00, 0.00, -0.00, -1.00, 82.1, 2.0)">i</text><text xml:space="preserve" font-family="VarelaRound" font-size="50.0" fill="#FEFFFF" transform="matrix(1.00, 0.00, -0.00, -1.00, 94.9, 2.0)">v</text><text xml:space="preserve" font-family="VarelaRound" font-size="50.0" fill="#FEFFFF" transform="matrix(1.00, 0.00, -0.00, -1.00, 121.1, 2.0)">e</text><text xml:space="preserve" font-family="VarelaRound" font-size="50.0" fill="#FEFFFF" transform="matrix(1.00, 0.00, -0.00, -1.00, 149.6, 2.0)"> </text><text xml:space="preserve" font-family="VarelaRound" font-size="50.0" fill="#FEFFFF" transform="matrix(1.00, 0.00, -0.00, -1.00, 162.6, 2.0)">i</text><text xml:space="preserve" font-family="VarelaRound" font-size="50.0" fill="#FEFFFF" transform="matrix(1.00, 0.00, -0.00, -1.00, 175.4, 2.0)">n</text><text xml:space="preserve" font-family="VarelaRound" font-size="50.0" fill="#FEFFFF" transform="matrix(1.00, 0.00, -0.00, -1.00, 205.9, 2.0)"> </text><text xml:space="preserve" font-family="VarelaRound" font-size="50.0" fill="#FEFFFF" transform="matrix(1.00, 0.00, -0.00, -1.00, 218.9, 2.0)">t</text><text xml:space="preserve" font-family="VarelaRound" font-size="50.0" fill="#FEFFFF" transform="matrix(1.00, 0.00, -0.00, -1.00, 238.1, 2.0)">h</text><text xml:space="preserve" font-family="VarelaRound" font-size="50.0" fill="#FEFFFF" transform="matrix(1.00, 0.00, -0.00, -1.00, 268.5, 2.0)">i</text><text xml:space="preserve" font-family="VarelaRound" font-size="50.0" fill="#FEFFFF" transform="matrix(1.00, 0.00, -0.00, -1.00, 281.4, 2.0)">s</text><text xml:space="preserve" font-family="VarelaRound" font-size="50.0" fill="#FEFFFF" transform="matrix(1.00, 0.00, -0.00, -1.00, 305.4, 2.0)"> </text><text xml:space="preserve" font-family="VarelaRound" font-size="50.0" fill="#FEFFFF" transform="matrix(1.00, 0.00, -0.00, -1.00, 318.4, 2.0)">“</text><text xml:space="preserve" font-family="VarelaRound" font-size="50.0" fill="#FEFFFF" transform="matrix(1.00, 0.00, -0.00, -1.00, 340.2, 2.0)">m</text><text xml:space="preserve" font-family="VarelaRound" font-size="50.0" fill="#FEFFFF" transform="matrix(1.00, 0.00, -0.00, -1.00, 386.2, 2.0)">o</text><text xml:space="preserve" font-family="VarelaRound" font-size="50.0" fill="#FEFFFF" transform="matrix(1.00, 0.00, -0.00, -1.00, 416.6, 2.0)">r</text><text xml:space="preserve" font-family="VarelaRound" font-size="50.0" fill="#FEFFFF" transform="matrix(1.00, 0.00, -0.00, -1.00, 435.9, 2.0)">e</text><text xml:space="preserve" font-family="VarelaRound" font-size="50.0" fill="#FEFFFF" transform="matrix(1.00, 0.00, -0.00, -1.00, 464.4, 2.0)"> </text><text xml:space="preserve" font-family="VarelaRound" font-size="50.0" fill="#FEFFFF" transform="matrix(1.00, 0.00, -0.00, -1.00, 477.4, 2.0)">w</text><text xml:space="preserve" font-family="VarelaRound" font-size="50.0" fill="#FEFFFF" transform="matrix(1.00, 0.00, -0.00, -1.00, 516.7, 2.0)">i</text><text xml:space="preserve" font-family="VarelaRound" font-size="50.0" fill="#FEFFFF" transform="matrix(1.00, 0.00, -0.00, -1.00, 529.5, 2.0)">t</text><text xml:space="preserve" font-family="VarelaRound" font-size="50.0" fill="#FEFFFF" transform="matrix(1.00, 0.00, -0.00, -1.00, 548.7, 2.0)">h</text><text xml:space="preserve" font-family="VarelaRound" font-size="50.0" fill="#FEFFFF" transform="matrix(1.00, 0.00, -0.00, -1.00, 579.2, 2.0)"> </text><text xml:space="preserve" font-family="VarelaRound" font-size="50.0" fill="#FEFFFF" transform="matrix(1.00, 0.00, -0.00, -1.00, 592.2, 2.0)">l</text><text xml:space="preserve" font-family="VarelaRound" font-size="50.0" fill="#FEFFFF" transform="matrix(1.00, 0.00, -0.00, -1.00, 605.4, 2.0)">e</text><text xml:space="preserve" font-family="VarelaRound" font-size="50.0" fill="#FEFFFF" transform="matrix(1.00, 0.00, -0.00, -1.00, 633.9, 2.0)">s</text><text xml:space="preserve" font-family="VarelaRound" font-size="50.0" fill="#FEFFFF" transform="matrix(1.00, 0.00, -0.00, -1.00, 657.9, 2.0)">s</text><text xml:space="preserve" font-family="VarelaRound" font-size="50.0" fill="#FEFFFF" transform="matrix(1.00, 0.00, -0.00, -1.00, 681.9, 2.0)">”</text><text xml:space="preserve" font-family="VarelaRound" font-size="50.0" fill="#FEFFFF" transform="matrix(1.00, 0.00, -0.00, -1.00, 702.9, 2.0)"> </text><text xml:space="preserve" font-family="VarelaRound" font-size="50.0" fill="#FEFFFF" transform="matrix(1.00, 0.00, -0.00, -1.00, 715.9, 2.0)">w</text><text xml:space="preserve" font-family="VarelaRound" font-size="50.0" fill="#FEFFFF" transform="matrix(1.00, 0.00, -0.00, -1.00, 755.2, 2.0)">o</text><text xml:space="preserve" font-family="VarelaRound" font-size="50.0" fill="#FEFFFF" transform="matrix(1.00, 0.00, -0.00, -1.00, 785.6, 2.0)">r</text><text xml:space="preserve" font-family="VarelaRound" font-size="50.0" fill="#FEFFFF" transform="matrix(1.00, 0.00, -0.00, -1.00, 804.9, 2.0)">l</text><text xml:space="preserve" font-family="VarelaRound" font-size="50.0" fill="#FEFFFF" transform="matrix(1.00, 0.00, -0.00, -1.00, 818.2, 2.0)">d</text></g></svg>