<?xml version="1.0" encoding="UTF-8" standalone="no"?><svg xmlns="http://www.w3.org/2000/svg" xmlns:xlink="http://www.w3.org/1999/xlink" clip-rule="evenodd" stroke-miterlimit="4.00" viewBox="0 0 568 53"><desc>SVG generated by Keynote</desc><defs></defs><g transform="matrix(1.00, 0.00, -0.00, -1.00, 0.0, 53.0)"><text xml:space="preserve" font-family="VarelaRound" font-size="50.0" fill="#FEFFFF" transform="matrix(1.00, 0.00, -0.00, -1.00, -1.0, 13.0)">b</text><text xml:space="preserve" font-family="VarelaRound" font-size="50.0" fill="#FEFFFF" transform="matrix(1.00, 0.00, -0.00, -1.00, 30.3, 13.0)">y</text><text xml:space="preserve" font-family="VarelaRound" font-size="50.0" fill="#FEFFFF" transform="matrix(1.00, 0.00, -0.00, -1.00, 57.0, 13.0)"> </text><text xml:space="preserve" font-family="VarelaRound" font-size="50.0" fill="#FEFFFF" transform="matrix(1.00, 0.00, -0.00, -1.00, 70.0, 13.0)">k</text><text xml:space="preserve" font-family="VarelaRound" font-size="50.0" fill="#FEFFFF" transform="matrix(1.00, 0.00, -0.00, -1.00, 97.2, 13.0)">n</text><text xml:space="preserve" font-family="VarelaRound" font-size="50.0" fill="#FEFFFF" transform="matrix(1.00, 0.00, -0.00, -1.00, 127.7, 13.0)">o</text><text xml:space="preserve" font-family="VarelaRound" font-size="50.0" fill="#FEFFFF" transform="matrix(1.00, 0.00, -0.00, -1.00, 158.1, 13.0)">w</text><text xml:space="preserve" font-family="VarelaRound" font-size="50.0" fill="#FEFFFF" transform="matrix(1.00, 0.00, -0.00, -1.00, 197.3, 13.0)">i</text><text xml:space="preserve" font-family="VarelaRound" font-size="50.0" fill="#FEFFFF" transform="matrix(1.00, 0.00, -0.00, -1.00, 210.2, 13.0)">n</text><text xml:space="preserve" font-family="VarelaRound" font-size="50.0" fill="#FEFFFF" transform="matrix(1.00, 0.00, -0.00, -1.00, 240.6, 13.0)">g</text><text xml:space="preserve" font-family="VarelaRound" font-size="50.0" fill="#FEFFFF" transform="matrix(1.00, 0.00, -0.00, -1.00, 272.2, 13.0)"> </text><text xml:space="preserve" font-family="VarelaRound" font-size="50.0" fill="#FEFFFF" transform="matrix(1.00, 0.00, -0.00, -1.00, 285.2, 13.0)">y</text><text xml:space="preserve" font-family="VarelaRound" font-size="50.0" fill="#FEFFFF" transform="matrix(1.00, 0.00, -0.00, -1.00, 311.6, 13.0)">o</text><text xml:space="preserve" font-family="VarelaRound" font-size="50.0" fill="#FEFFFF" transform="matrix(1.00, 0.00, -0.00, -1.00, 342.0, 13.0)">u</text><text xml:space="preserve" font-family="VarelaRound" font-size="50.0" fill="#FEFFFF" transform="matrix(1.00, 0.00, -0.00, -1.00, 372.5, 13.0)">r</text><text xml:space="preserve" font-family="VarelaRound" font-size="50.0" fill="#FEFFFF" transform="matrix(1.00, 0.00, -0.00, -1.00, 391.8, 13.0)"> </text><text xml:space="preserve" font-family="VarelaRound" font-size="50.0" fill="#FEFFFF" transform="matrix(1.00, 0.00, -0.00, -1.00, 404.8, 13.0)">p</text><text xml:space="preserve" font-family="VarelaRound" font-size="50.0" fill="#FEFFFF" transform="matrix(1.00, 0.00, -0.00, -1.00, 436.4, 13.0)">e</text><text xml:space="preserve" font-family="VarelaRound" font-size="50.0" fill="#FEFFFF" transform="matrix(1.00, 0.00, -0.00, -1.00, 464.9, 13.0)">o</text><text xml:space="preserve" font-family="VarelaRound" font-size="50.0" fill="#FEFFFF" transform="matrix(1.00, 0.00, -0.00, -1.00, 495.3, 13.0)">p</text><text xml:space="preserve" font-family="VarelaRound" font-size="50.0" fill="#FEFFFF" transform="matrix(1.00, 0.00, -0.00, -1.00, 526.8, 13.0)">l</text><text xml:space="preserve" font-family="VarelaRound" font-size="50.0" fill="#FEFFFF" transform="matrix(1.00, 0.00, -0.00, -1.00, 540.1, 13.0)">e</text></g></svg>